<?xml version="1.0" encoding="UTF-8" standalone="no"?>
<!-- Created with Inkscape (http://www.inkscape.org/) -->

<svg
   width="396.875mm"
   height="113.41679mm"
   viewBox="0 0 1500 428.66189"
   version="1.1"
   id="svg1"
   xml:space="preserve"
   sodipodi:docname="esquema_resumen_grafico.svg"
   inkscape:version="1.3.2 (091e20e, 2023-11-25)"
   xmlns:inkscape="http://www.inkscape.org/namespaces/inkscape"
   xmlns:sodipodi="http://sodipodi.sourceforge.net/DTD/sodipodi-0.dtd"
   xmlns="http://www.w3.org/2000/svg"
   xmlns:svg="http://www.w3.org/2000/svg"><sodipodi:namedview
     id="namedview1"
     pagecolor="#505050"
     bordercolor="#ffffff"
     borderopacity="1"
     inkscape:showpageshadow="0"
     inkscape:pageopacity="0"
     inkscape:pagecheckerboard="1"
     inkscape:deskcolor="#505050"
     inkscape:document-units="mm"
     inkscape:zoom="0.47780295"
     inkscape:cx="654.0353"
     inkscape:cy="609.03767"
     inkscape:window-width="1920"
     inkscape:window-height="1035"
     inkscape:window-x="1440"
     inkscape:window-y="23"
     inkscape:window-maximized="1"
     inkscape:current-layer="layer1"
     showguides="false" /><defs
     id="defs1"><style
       type="text/css"
       id="style1"><![CDATA[
    .svglite line, .svglite polyline, .svglite polygon, .svglite path, .svglite rect, .svglite circle {
      fill: none;
      stroke: #000000;
      stroke-linecap: round;
      stroke-linejoin: round;
      stroke-miterlimit: 10.00;
    }
    .svglite text {
      white-space: pre;
    }
  ]]></style><clipPath
       id="cpMC4wMHw0NzAuMjV8MC4wMHw1NjIuNTA="><rect
         x="0"
         y="0"
         width="470.25"
         height="562.5"
         id="rect2" /></clipPath><clipPath
       id="cpODEuMzZ8NDY0Ljc3fDUuNDh8NTI4Ljcw"><rect
         x="81.360001"
         y="5.48"
         width="383.41"
         height="523.21997"
         id="rect3" /></clipPath><linearGradient
       id="gradientFill-1"
       x1="0.7414425"
       x2="590.86261"
       y1="3.6658268"
       y2="593.78699"
       gradientUnits="userSpaceOnUse"
       spreadMethod="pad"
       gradientTransform="scale(1.2219423,0.81836924)"><stop
         offset="0"
         stop-color="rgb(203,206,208)"
         stop-opacity="1"
         id="stop1" /><stop
         offset="1"
         stop-color="rgb(132,131,139)"
         stop-opacity="1"
         id="stop2" /></linearGradient><linearGradient
       id="gradientFill-2"
       x1="301.02603"
       x2="703.0675"
       y1="151.4006"
       y2="553.44208"
       gradientUnits="userSpaceOnUse"
       spreadMethod="pad"
       gradientTransform="scale(0.9899476,1.0101545)"><stop
         offset="0"
         stop-color="rgb(39,109,195)"
         stop-opacity="1"
         id="stop3" /><stop
         offset="1"
         stop-color="rgb(22,92,170)"
         stop-opacity="1"
         id="stop4" /></linearGradient><marker
       style="overflow:visible"
       refX="0"
       refY="0"
       orient="auto-start-reverse"
       inkscape:stockid="Triangle4204"
       markerWidth="1"
       markerHeight="1"
       viewBox="0 0 1 1"
       inkscape:isstock="true"
       inkscape:collect="always"
       preserveAspectRatio="xMidYMid"
       id="Triangle4204"><path
         transform="scale(0.5)"
         style="fill:#f0e442;fill-rule:evenodd;stroke:#f0e442;stroke-width:1pt"
         d="M 5.77,0 -2.88,5 V -5 Z"
         id="path12" /></marker><marker
       style="overflow:visible"
       refX="0"
       refY="0"
       orient="auto-start-reverse"
       inkscape:stockid="Triangle1955"
       markerWidth="1"
       markerHeight="1"
       viewBox="0 0 1 1"
       inkscape:isstock="true"
       inkscape:collect="always"
       preserveAspectRatio="xMidYMid"
       id="Triangle1955"><path
         transform="scale(0.5)"
         style="fill:#f0e442;fill-rule:evenodd;stroke:#f0e442;stroke-width:1pt"
         d="M 5.77,0 -2.88,5 V -5 Z"
         id="path13" /></marker><marker
       style="overflow:visible"
       refX="0"
       refY="0"
       orient="auto-start-reverse"
       inkscape:stockid="Triangle8570"
       markerWidth="1"
       markerHeight="1"
       viewBox="0 0 1 1"
       inkscape:isstock="true"
       inkscape:collect="always"
       preserveAspectRatio="xMidYMid"
       id="Triangle8570"><path
         transform="scale(0.5)"
         style="fill:#f0e442;fill-rule:evenodd;stroke:#f0e442;stroke-width:1pt"
         d="M 5.77,0 -2.88,5 V -5 Z"
         id="path14" /></marker><marker
       style="overflow:visible"
       refX="0"
       refY="0"
       orient="auto-start-reverse"
       inkscape:stockid="Triangle8139"
       markerWidth="1"
       markerHeight="1"
       viewBox="0 0 1 1"
       inkscape:isstock="true"
       inkscape:collect="always"
       preserveAspectRatio="xMidYMid"
       id="Triangle8139"><path
         transform="scale(0.5)"
         style="fill:#f0e442;fill-rule:evenodd;stroke:#f0e442;stroke-width:1pt"
         d="M 5.77,0 -2.88,5 V -5 Z"
         id="path15" /></marker></defs><g
     inkscape:label="Layer 1"
     inkscape:groupmode="layer"
     id="layer1"
     transform="translate(-62.93261)"><g
       id="g17"
       transform="matrix(1.6677799,0,0,1.6677799,-123.12524,19.869492)"
       inkscape:label="imagenes"><path
         style="display:inline;fill:#0072b2;fill-opacity:1;stroke:none;stroke-width:0.12299"
         d="m 185.70038,41.814625 v 0.72573 l -2.54029,0.47611 -1.51208,-0.2338 v 0.54441 l -1.14431,-0.12732 -0.68987,0.55999 -1.19001,0.0511 v 0.24188 h -0.24146 v -0.24188 h -0.24188 c 0.28574,-0.36538 0.85021,-0.24146 1.27015,-0.24146 -0.0813,-0.61276 -0.46529,-0.78625 -1.02822,-0.78629 -0.003,0.76027 -1.2552,1.80629 -1.27015,0.54432 h -0.24188 c 0,0.61493 0.0541,1.20052 -0.72582,1.20963 l 0.48385,-0.72578 v -0.0609 -0.0609 c -0.37773,-0.26701 -0.58836,-0.12223 -1.02822,-0.12094 0,0.99313 -0.84741,1.27014 -1.75401,1.27014 v -0.54437 h -0.48384 c -6.8e-4,0.28447 -0.004,0.48173 -0.24147,0.6654 v 0.0609 0.0609 c 0.49736,0.55153 -0.21036,0.72574 -0.6653,0.72578 l 0.12094,-0.9677 -0.75708,0.64853 -0.47653,0.21719 -0.0383,0.64605 -1.20968,-0.54437 0.24189,1.27015 -1.51212,0.4839 0.24189,-0.84681 -1.02819,0.12094 0.24189,1.02827 c -0.58499,0 -1.01919,0.0456 -1.51207,-0.30236 h -0.0609 c -0.18567,0.2108 -0.38029,0.44152 -0.41563,0.73119 -0.066,0.54088 0.26488,1.13038 -0.49161,1.32525 v -0.78629 l -0.90489,0.17119 -0.60726,-0.17119 v 0.78629 l 1.27023,-0.24146 c -0.1137,0.3722 -0.42458,0.47956 -0.7863,0.4839 0,0.21421 0.0298,0.46494 -0.0596,0.66501 -0.23677,0.50906 -0.89667,0.4474 -1.14912,-0.017 -0.10135,-0.1861 -0.0613,-0.44335 -0.0613,-0.64797 h -0.24188 c 0,0.39732 0.10306,0.87904 -0.24189,1.14916 v 0.0609 0.0609 c 0.87691,0.63652 -0.40329,1.27015 -1.02823,1.27015 v -0.54437 c 0.42032,0 0.68047,0.003 1.02822,-0.24146 v -0.0609 -0.0609 c -0.21548,-0.15586 -0.44923,-0.53138 -0.72731,-0.55723 -0.55544,-0.0515 -0.47325,0.73519 -0.57843,1.04104 -0.24316,0.70798 -0.86435,1.92541 -1.7184,1.93555 -2.3e-4,-0.27042 0.008,-0.58402 -0.19718,-0.79337 -0.23719,-0.24018 -0.52702,0.13542 -0.5444,0.37007 -0.0256,0.37091 0.4152,0.77633 0.49965,1.14899 h -0.7863 v 1.27015 c -0.20824,0.0256 -1.16193,0.22995 -1.23335,0.38199 -0.23337,0.49676 0.60527,0.88901 -0.27851,1.12996 v -0.48386 h -0.48385 v 0.48386 c 0.81189,0.0554 0.30406,0.80388 0.24188,1.27014 h -1.51207 v 0.72582 c 0.19972,-6.7e-4 0.58167,-0.13031 0.75159,-0.0298 0.37347,0.21165 -0.24998,1.05697 -0.63061,0.57784 h -0.0609 -0.0609 c -0.33769,0.30448 -0.82138,0.48232 -1.27018,0.48386 l -0.24189,1.99592 0.78629,-0.36283 c 0,0.76356 -0.0383,1.62195 -1.02819,1.63306 l -0.24186,1.27015 c 0.40327,0.0916 0.63435,0.32237 0.72579,0.72578 -0.25849,0 -0.73495,-0.13797 -0.95913,-0.0298 -0.31511,0.14691 -0.30703,0.56829 -0.0298,0.74005 0.20867,0.13031 0.51509,0.0801 0.75029,0.0801 0,0.95693 -0.41479,1.02822 -1.27014,1.02822 v 0.48386 c 0.47733,0.0298 1.09903,0.23932 1.01128,0.84156 -0.0383,0.23805 -0.22016,0.4216 -0.21843,0.67047 0.003,0.38709 0.51478,0.578 0.40583,1.00168 -0.0631,0.24615 -0.25551,0.59062 -0.49251,0.70143 -0.12689,0.0592 -0.30703,0.0298 -0.40242,0.14777 -0.27211,0.33386 -0.54429,1.22743 -0.54575,1.65707 0.61971,-0.002 0.78623,-0.26104 0.78629,-0.8468 1.27745,0.33386 -0.27339,1.85373 -0.54436,2.35888 0.8276,0.224 1.00959,1.29868 0.72254,2.02986 -0.12987,0.33089 -0.50323,0.68077 -0.46837,1.05118 0.0298,0.32791 0.37943,0.10178 0.55933,0.26573 0.25596,0.23337 0.21421,0.63822 0.21421,0.94761 -0.72467,-0.009 -0.58956,-0.7234 -1.27014,-0.72578 l 0.24189,1.75399 1.02825,-0.36282 v 0.84677 h -1.02825 c 0.003,0.96673 1.25848,0.94062 1.27014,1.99592 -0.17756,0 -0.48037,-0.0554 -0.6288,0.0617 -0.1154,0.0907 -0.0963,0.27936 -0.1512,0.40413 -0.20995,0.47653 -0.38282,0.80116 0.29598,0.80354 v -0.48381 h 0.72582 c 0.003,0.72749 0.16864,1.02814 -0.72582,1.02814 0.0592,0.44195 0.29084,1.16352 0.55795,1.52638 0.24571,0.33344 0.67386,0.21378 0.7123,0.71151 h -0.54443 c 0.003,0.54531 0.33644,0.3969 0.50788,0.79775 0.31768,0.74256 -0.44335,0.95625 -0.9917,0.95625 0,0.9471 0.61105,0.52768 1.07273,1.06051 0.32153,0.37091 0.19717,1.0277 0.19717,1.47983 h -0.78629 l 0.30237,-0.54437 v -0.0609 l -0.54433,-0.42329 0.0213,1.62415 0.46466,0.67421 h -0.48386 v 0.48386 l 1.02823,-0.24146 v 1.27014 h -0.24187 c -0.003,-1.14609 -0.77835,0.004 -0.96443,0.46061 -0.16864,0.41009 0.16266,0.66684 0.16266,1.05147 0,0.25295 -0.19291,0.47363 -0.22655,0.72578 0.34408,0.0213 0.746,0.19674 0.84673,0.54436 -0.29767,0 -0.67237,0.0609 -0.95747,-0.0298 -0.16137,-0.0532 -0.39732,-0.30832 -0.5786,-0.1993 -0.1993,0.12052 -0.16523,1.06216 0.0426,1.16356 0.28151,0.13712 0.62035,-0.14479 0.88807,-0.20527 l -0.24146,1.02823 -0.68937,0.0617 -0.33898,0.54262 c 0.26701,0.55881 0.78399,0.51265 0.78622,-0.12094 h 0.48393 c -0.004,0.44787 -0.26914,0.91051 -0.72585,1.02817 v -0.24142 c -0.32833,0 -0.87736,-0.10605 -1.1634,0.0771 -0.44832,0.28703 -0.32576,1.246005 0.20738,1.389295 0.19123,0.0511 0.45952,-0.26317 0.65318,-0.31768 -0.0297,0.51728 -0.44103,1.19494 -0.96771,1.33057 -0.13285,-0.99696 -1.37642,-1.01821 -1.51211,0 0.49812,0 1.0841,-0.10773 1.51211,0.18184 v 0.0609 l -0.78629,0.78624 v -0.48384 h -1.51207 v 0.48385 c 0.30916,0.0213 0.92816,0.12435 1.15565,0.35644 0.40797,0.41521 -0.21633,1.05399 -0.61132,1.15563 0,-0.19035 0.0631,-0.53082 -0.0621,-0.68928 -0.54568,-0.68898 -1.20639,0.47665 -1.20801,0.93126 0.7752,0.0532 0.33556,0.77943 -0.24146,0.78629 v -1.02827 c -0.408,0.18908 -0.83902,0.62035 -1.02825,1.02827 0.17973,0.12732 0.4246,0.20185 0.58618,0.33855 0.11625,0.0984 0.1367,0.28234 0.27975,0.35048 0.25765,0.1235 0.66913,0.0213 0.94878,0.0426 0.54531,0.0383 0.99194,0.33045 1.5623,0.22314 0.60429,-0.11413 1.09643,-0.58639 1.70924,-0.69435 0.77788,-0.1367 1.63133,-0.0945 2.39664,-0.28532 0.55697,-0.1384 1.29523,-0.32493 1.80046,-0.56775 0.1929,-0.0928 0.30235,-0.25295 0.51757,-0.31981 0.59616,-0.18355 1.32117,-0.18866 1.88449,-0.44106 0.89058,-0.39902 1.13345,-1.43419 2.1655,-1.66823 0.20739,-0.99292 1.29076,-1.47153 1.70302,-2.329715 0.0847,-0.1763 0.0213,-0.3807 0.0839,-0.56319 0.12307,-0.37474 0.45196,-0.70141 0.50323,-1.1044 0.0754,-0.59504 -0.0554,-1.21099 0.017,-1.80672 0.0771,-0.64801 0.3377,-1.18285 0.21846,-1.87728 -0.18311,-1.06992 -0.76947,-2.03421 -1.20346,-2.98348 -0.25168,-0.55093 -0.32194,-1.1774 -0.60104,-1.73518 -0.11413,-0.22868 -0.34324,-0.38455 -0.44196,-0.61395 -0.45583,-1.06161 -0.38667,-2.32746 -0.82581,-3.40039 -0.24741,-0.6042 -0.76568,-1.00608 -1.13238,-1.5177 -0.29171,-0.40668 -0.54714,-1.01791 -0.73149,-1.4855 -0.24146,-0.6125 -0.25167,-1.29983 -0.39817,-1.93285 -0.10306,-0.44425 -0.39434,-0.88229 -0.44834,-1.3333 -0.0737,-0.6157 0.06,-1.25176 -0.017,-1.86716 -0.0298,-0.2406 -0.19759,-0.43155 -0.22613,-0.6731 -0.19801,-1.65954 -0.0873,-3.53219 0.21846,-5.14902 0.0741,-0.39008 -0.0426,-0.80312 0.0298,-1.19396 0.13031,-0.71539 0.42612,-1.28506 0.70143,-1.94321 0.0903,-0.21548 0.0426,-0.44199 0.0975,-0.66276 0.12946,-0.51234 0.38284,-1.0536 0.44744,-1.57821 0.0426,-0.32875 -0.0541,-0.686 0.052,-1.0053 0.13798,-0.41734 0.5373,-0.68239 0.6539,-1.1237 0.0945,-0.35687 -0.0686,-0.77156 0.0822,-1.11441 0.2257,-0.51384 0.7386,-0.82317 0.92985,-1.37449 0.19206,-0.55411 0.33727,-1.32422 0.67536,-1.80408 0.14905,-0.21164 0.37262,-0.27638 0.54207,-0.45335 0.2389,-0.24998 0.16139,-0.46946 0.5806,-0.49821 0.20015,-0.88343 0.95655,-1.08609 1.43802,-1.73858 0.23251,-0.31514 0.32407,-0.73158 0.59006,-1.0264 0.36709,-0.40669 1.00906,-0.58635 1.42482,-0.94522 0.4675,-0.40328 0.81912,-0.94578 1.31077,-1.32313 0.27084,-0.20781 0.63116,-0.29213 0.91958,-0.47822 0.26062,-0.16821 0.4199,-0.45597 0.6872,-0.61451 1.16509,-0.69056 2.40717,-1.21015 3.60923,-1.78543 0.73217,-0.35005 1.37265,-0.87266 2.09371,-1.19618 1.45799,-0.65423 2.95013,-1.09644 4.48154,-1.50471 0.96553,-0.25764 1.87575,-0.6958 2.86019,-0.91234 1.33479,-0.29341 2.88592,0.0613 4.23387,-0.0298 0.3343,-0.017 0.59159,-0.24486 0.90966,-0.29085 0.77403,-0.11073 1.63468,-0.004 2.41693,-0.004 0.78224,0 1.64293,-0.1022 2.41697,0.004 0.58252,0.0835 1.17271,0.41265 1.76664,0.52001 0.27596,0.0498 0.56097,-0.017 0.8365,0.0456 1.52144,0.32747 2.9681,1.09788 4.37453,1.69889 0.90621,0.38752 1.77721,0.81543 2.67631,1.22969 0.38199,0.17631 0.8063,0.23081 1.17399,0.44608 0.40967,0.23933 0.76032,0.58363 1.15572,0.83868 1.36077,0.87772 2.77719,1.69689 4.00254,2.76761 0.6605,0.57711 1.20921,1.28939 1.86111,1.87409 0.59483,0.53351 1.70669,0.86453 1.93311,1.70201 0.49374,0.0298 1.13158,1.12416 1.52656,1.49108 0.36538,0.3394 0.54109,0.76385 0.86661,1.11219 0.18226,0.1942 0.45335,0.2338 0.63852,0.41266 0.49318,0.47499 0.83684,1.30511 1.20976,1.88124 0.17886,0.27723 0.48781,0.44383 0.64257,0.73911 0.32918,0.62762 0.4152,1.31768 0.68822,1.95007 0.18609,0.43015 0.50646,0.81929 0.65424,1.24536 0.20823,0.60019 0.20483,1.24787 0.32151,1.86378 0.11754,0.62149 0.3854,1.26023 0.46035,1.88768 0.1005,0.83663 0.0213,1.71818 0.004,2.53791 -0.017,1.14924 0.12861,2.36488 -0.004,3.50561 -0.0839,0.70423 -0.32833,1.43168 -0.46035,2.12965 -0.0928,0.48956 0.069,1.01446 -0.0456,1.50172 -0.23847,1.03231 -0.68464,1.96603 -0.97179,2.98101 -0.40882,1.44531 -0.84907,2.90351 -1.27122,4.33778 -0.49824,1.6925 -1.18663,3.26841 -1.73542,4.95939 -0.15842,0.48947 -0.14905,1.57728 -0.53007,1.87503 v 0.0609 0.0609 c 0.6421,0.71109 0.13883,2.42029 0.24998,3.32118 0.16012,1.30256 1.09359,2.775825 1.99844,3.691625 1.31435,1.33032 3.27979,2.06394 4.99235,2.70748 1.20461,0.45243 2.41608,0.99066 3.66399,1.32032 0.30534,0.0809 0.63287,-0.0213 0.93999,0.055 0.48398,0.1154 0.91647,0.38454 1.4014,0.48925 0.28446,0.0613 0.81869,0.10264 1.08302,-0.0383 0.4356,-0.22442 0.50284,-0.72867 1.07557,-0.43334 0.5505,0.28446 0.14692,1.06335 0.002,1.48878 -0.17672,0.52285 -0.0426,1.83883 0.44332,2.17483 0.21548,0.14905 0.53444,0.0971 0.78271,0.0971 -0.31939,-0.73489 -0.57686,-1.21113 -0.4761,-2.05406 0.0213,-0.2125 0.20271,-0.39646 0.20271,-0.60718 0,-0.30065 -0.28107,-0.6042 -0.32919,-0.90489 -0.0298,-0.21335 0.11754,-0.49216 0.11839,-0.72817 h 0.72582 c -0.17672,-0.36027 -0.63187,-0.95289 -1.08864,-0.72411 -0.17247,0.0864 -0.34579,0.40924 -0.54441,0.40924 -0.26403,-5e-5 -0.54888,-0.73694 -0.60485,-0.95528 h 0.72575 v -0.48385 c -0.33473,0 -1.16258,0.10263 -1.20065,-0.42329 -0.008,-0.16055 0.17885,-0.38923 0.23294,-0.54433 l -0.78629,-0.0604 v 0.48385 h -0.24146 v -0.96775 h -0.4839 v -0.54432 h 0.72582 v -0.72578 l -1.27023,0.24146 0.24146,-0.78629 v -0.0605 -1.149195 l -0.72574,0.24188 c -0.055,-0.42925 0.017,-0.65832 0.48386,-0.78629 -0.10731,-0.21719 -0.33174,-0.34665 -0.43288,-0.56401 -0.14778,-0.31853 -0.10817,-0.69456 -0.47551,-0.88593 -0.23592,-0.12307 -0.58738,-0.0617 -0.84562,-0.0617 2.3e-4,-0.40243 0.0213,-0.69397 0.4839,-0.72578 -0.003,-0.88679 -0.41989,-1.02822 -1.20968,-1.02822 v -0.72579 h 0.72578 v -0.78628 c -0.52511,0.0698 -1.2977,0.59096 -1.51203,-0.24188 0.19377,0.0456 0.41691,0.22272 0.61506,0.20696 0.55463,-0.0426 0.89663,-0.77816 0.89697,-1.23548 l -1.27014,0.54436 c -0.0213,-0.15841 -0.10434,-0.35984 -0.0383,-0.51306 0.12009,-0.26786 1.12323,-1.17071 0.44017,-1.50683 -0.23082,-0.11371 -0.63504,-0.0383 -0.88799,-0.0383 l 0.0383,-0.96421 0.38539,-0.34111 0.0617,-0.69047 h -0.48382 v -0.48386 c 0.16396,0 1.52255,-0.0128 0.93126,-0.48219 -0.26658,-0.21165 -0.63077,0.0383 -0.85392,-0.33557 -0.14266,-0.23763 -0.0771,-0.60965 -0.0771,-0.87594 0,-0.71015 -0.14862,-1.63599 0.72586,-1.87494 0.0984,-0.36112 0.51239,-0.71671 0.51243,-1.09896 0,-0.20738 -0.15714,-0.39135 -0.19376,-0.59457 -0.0511,-0.28064 0.017,-0.48837 -0.31854,-0.54437 v 0.72579 c -0.98886,-0.25424 -0.15799,-1.28663 -0.25806,-1.8649 -0.0622,-0.35772 -0.41265,-0.65658 -0.4118,-1.02796 1.2e-4,-0.25977 0.20058,-0.43471 0.42837,-0.49421 4e-5,0.70177 0.40967,1.22557 1.02822,0.60484 v -0.0609 c -0.23891,-0.26402 -0.42074,-0.41264 -0.7863,-0.42329 0,-0.62114 0.28703,-0.97286 0.49821,-1.53771 0.19036,-0.50812 0.23251,-0.95417 0.29554,-1.48401 0.063,-0.52963 0.38796,-0.902 -0.24997,-1.27253 l -0.30236,1.02818 h -0.48386 l 0.23806,-0.78481 -0.23422,-1.15065 0.22273,-0.73608 0.017,-1.38083 h 0.78629 v -0.4839 c -0.58035,-0.004 -0.78587,-0.29852 -0.78629,-0.84672 0.86647,0.17503 1.19706,-0.87291 1.00041,-1.61555 -0.0703,-0.26659 -0.29554,-0.40627 -0.40499,-0.64202 -0.12094,-0.2602 -0.0971,-0.53065 -0.3113,-0.75789 -0.20143,-0.21378 -0.53027,-0.19632 -0.69081,-0.46346 -0.1137,-0.18908 -0.0524,-0.41222 -0.1052,-0.61672 -0.16565,-0.63507 -0.45608,-1.16334 -0.45608,-1.8318 h 0.96779 v 0.48394 h 0.78625 c -0.13457,-0.27638 -0.31982,-0.68818 -0.55221,-0.88812 -0.38326,-0.32918 -0.71104,-0.2504 -0.71798,-0.86593 h -1.02822 l -0.24146,-1.27019 c 0.30704,0.0698 0.61748,0.44881 0.90638,0.45018 0.56119,0.003 0.24019,-0.72953 -0.008,-0.89996 -0.3279,-0.22314 -0.99649,-0.0945 -1.37967,-0.0945 l -1.02827,-2.11695 c 0.20952,0.0468 0.54276,0.10987 0.68933,0.2768 0.37986,0.43156 0.001,0.86981 0.82279,0.87266 l 0.24188,-0.54437 v -0.0609 c -0.31087,-0.34451 -0.74055,-0.60284 -1.20972,-0.66535 -0.1631,-0.74725 -0.47946,-0.64887 -1.02821,-0.48386 0.0456,-0.20909 0.10987,-0.50932 0.32365,-0.61314 0.20185,-0.0984 0.68787,0.20271 0.68715,-0.17289 -6.8e-4,-0.35176 -0.57575,-0.19632 -0.78259,-0.3509 -0.33344,-0.24998 -0.46533,-0.76995 -0.46963,-1.16109 -0.92832,0 -1.75409,0.19845 -1.75409,-0.96767 l 0.9678,0.24147 v -0.54437 c -0.53449,-0.004 -0.67286,-0.36667 -1.08895,-0.62997 -0.63661,-0.40286 -1.07021,-0.31002 -1.51719,-0.99194 -0.29937,-0.4563 -1.03584,-0.84025 -0.1763,-1.16032 -0.43423,-0.7122 -0.94917,-0.18142 -1.47735,-0.56362 -0.53147,-0.38454 0.51923,-0.63133 0.75158,-0.64606 -0.083,-0.49833 -0.77829,-0.35176 -0.78629,-1.02822 h -1.87499 c 0.28575,-1.28608 -1.37789,-0.81551 -1.39113,-1.99597 -0.33259,0.0456 -0.63192,0.34536 -0.96656,0.15033 -0.59611,-0.34708 -0.31556,-1.39148 -1.2713,-1.42048 0.0298,0.25509 0.70688,1.46029 -0.11115,1.23595 -0.23592,-0.0652 -0.42832,-0.21676 -0.67536,-0.26786 v -1.08874 l -0.80592,0.29342 -0.70615,-0.17204 v -0.60484 c 0.69691,0.14308 0.78629,0.0481 0.78629,-0.66535 l -0.86077,0.41606 -0.65134,-0.17376 c -0.0741,-0.54679 -0.69342,-1.60341 -1.28131,-1.73726 -0.38369,-0.0873 -0.66151,0.17673 -1.01944,0.21761 -0.4962,0.0562 -0.88659,-0.32833 -1.34553,-0.44834 -0.19674,-0.0515 -0.44016,0.0213 -0.61335,-0.10774 -0.38539,-0.27978 0.20228,-0.63903 0.44927,-0.70657 -0.35388,-0.7179 -0.99858,-0.49152 -1.51211,-0.12094 v 0.0609 0.0609 l 0.24146,0.78629 c -0.41053,-0.004 -0.89617,-0.17076 -1.11816,-0.54556 -0.22272,-0.37645 -0.18695,-0.74584 -0.63585,-0.96651 v 0.48381 h -0.96775 l -0.30234,-1.27011 h -0.48386 v 0.54433 l -1.02822,-0.30236 v -0.0609 c 0.37816,-0.21079 0.20356,-0.8736 -0.24146,-0.87364 -0.26317,0 -0.40924,0.37603 -0.67101,0.43335 -0.48879,0.10732 -0.89463,-0.27212 -1.31622,-0.20483 -0.39903,0.063 -0.57077,0.45826 -1.037,0.46379 v -0.72582 l -1.08303,0.0511 -0.59649,0.36538 -1.33347,-0.64112 -0.97886,0.70874 c 0,-0.17672 0.055,-0.48091 -0.0622,-0.62876 -0.31939,-0.40286 -0.69389,0.40157 -0.72416,0.62876 -0.76122,0 -0.90277,-0.42499 -1.51208,-0.72586 -0.004,0.68805 -0.44561,0.72586 -1.02822,0.72586 v -0.72586 h -0.48385 m -2.54029,0.72586 h 0.54436 v -0.48393 l -0.54436,0.48393 m -2.47987,-0.24188 v 0.24188 h 0.48389 v -0.24188 h -0.48389 m 11.43141,0.36283 v 0.12094 h -0.12094 v -0.12094 h 0.12094 m 4.65716,0.66527 h -0.72578 v -0.24146 c 0.29511,4e-5 0.56812,-0.0456 0.72577,0.24146 m 8.83065,3.75 c -0.6981,-0.003 -0.87445,-0.65112 -0.96779,-1.27014 0.62332,0.0971 0.96579,0.68715 0.96779,1.27014 m -38.28604,1.39109 v 0.36283 h -0.36283 c 0.0383,-0.24018 0.12265,-0.32748 0.36283,-0.36283 m 44.93917,2.66128 h -0.60483 v -0.48385 c 0.31769,0.0426 0.55177,0.1499 0.60483,0.48385 m 2.17743,1.27015 c -0.60735,0 -1.02579,-0.0877 -1.02822,-0.78629 0.5652,0.017 0.95523,0.19121 1.02822,0.78629 m -53.76973,-0.30236 -0.4233,0.7863 c 0.47593,-10e-4 0.75866,-0.34366 0.4233,-0.7863 m 57.03585,1.81448 c -0.13287,0.003 -0.26062,0.002 -0.3773,0.0771 -0.8119,0.52461 0.30448,1.28523 0.37389,0.40413 0.0128,-0.15841 0.003,-0.32194 0.003,-0.48147 m -59.69709,0.48394 v 1.02822 h 0.4839 c -3.4e-4,-0.42372 -0.069,-0.82338 -0.4839,-1.02822 m 60.78583,0.72578 -0.0609,0.54437 h 0.24145 l -0.0609,-0.54437 h -0.12091 m -61.81401,0.54437 v 0.48385 h 0.48386 v -0.48385 h -0.48386 m 62.78176,1.51203 h 0.48384 v -0.48385 l -0.48384,0.48385 m -63.26569,0.4839 v -0.48391 c -0.36284,0.0609 -0.36284,0.4233 0,0.48391 m 62.96324,0.54432 v 0.48385 h -0.24188 v -0.48385 h 0.24188 m 0.36283,0.96775 h -0.36285 v -0.36283 c 0.24146,0.0383 0.32451,0.12137 0.36283,0.36283 m 3.93147,4.29434 v 0.48385 c 0.64393,-0.003 0.64393,-0.48164 0,-0.48385 m -0.24231,3.26607 0.48381,1.02822 h 0.54437 c -0.002,-0.71709 -0.32706,-1.02814 -1.02818,-1.02822 m -70.82606,2.9032 v 0.0609 0.0609 l 0.78625,0.24145 c -0.0716,-0.52507 -0.382,-0.64865 -0.78625,-0.36282 m 71.5518,-0.24146 0.30235,1.14921 h -0.54513 c -0.0869,-0.41692 -0.44472,-1.04829 0.24145,-1.14921 m 0.30236,4.17335 -0.30236,0.90728 c 0.71522,0.21079 0.7863,-0.34664 0.7863,-0.90728 h -0.48386 m -71.43085,1.51207 -0.42331,0.72583 c 0.45012,-10e-4 0.75296,-0.29128 0.42331,-0.72583 m 70.88653,0.24189 v 0.24146 h 0.54432 v -0.24146 h -0.54432 m 0.24188,2.2379 v 0.54432 h -0.48385 v 0.48386 h -0.24231 v -1.02818 h 0.72582 m -0.4838,8.83056 0.7862,-0.24146 v -0.12094 c -0.44288,-0.27851 -0.71322,-0.18482 -0.7862,0.36282 m -69.79791,-0.48385 v 0.48385 h 0.24189 v -0.48385 h -0.24189 m 70.03983,1.754 c 0.11201,-0.017 0.20228,-0.0256 0.30023,-0.0916 0.65866,-0.41989 -0.26701,-1.05249 -0.29895,-0.33174 -0.004,0.14096 -0.001,0.28234 -0.001,0.4233 m -70.52371,-0.12094 v 0.0609 0.0609 c 0.53996,0.382 0.96541,0.19888 0.9677,-0.48389 -0.45958,1.1e-4 -0.60858,0.10263 -0.9677,0.36283 m 15.36279,9.19351 c 0,-1.42682 -1.08857,-2.64421 -2.02246,-3.62605 -0.20697,-0.21761 -1.17791,-0.96298 -1.48384,-0.57132 -0.28149,0.36069 0.48824,0.89706 0.70389,1.11271 0.56519,0.56515 1.17799,1.21904 1.60998,1.88921 0.37219,0.57681 0.3624,1.19251 1.19243,1.19545 m -13.6088,-1.99593 v 0.24146 h -0.24145 v -0.24146 h 0.24145 m 55.16091,6.532185 h 0.54433 c 0.24443,-1.07813 0.89663,-1.616395 1.43235,-2.514685 0.11498,-0.19207 0.10135,-0.43016 0.21634,-0.62959 0.27936,-0.48453 0.58763,-0.79251 0.58971,-1.39198 -0.92818,5e-5 -0.88513,0.60075 -1.3442,1.24123 -0.79034,1.10262 -1.43802,1.8712 -1.43802,3.295025 m -56.91491,-1.512145 v 0.242295 h -0.24189 v -0.242295 h 0.24189 m 16.87487,0.242295 0.45604,1.64341 0.26999,2.409 c 0.58513,0.0426 0.68179,0.76974 0.78626,1.27011 0.67689,-0.1137 0.48385,-1.0683 0.48385,-1.57255 0,-0.74618 -0.23635,-1.1291 -0.43969,-1.81468 -0.26659,-0.89821 -0.41777,-1.93516 -1.55611,-1.93529 m 58.18502,4.05241 v 0.48386 h -0.24142 v -0.48386 h 0.24147 m -18.50793,0.24189 c -0.22316,0.30704 -0.57559,0.52814 -0.76569,0.85707 -0.41733,0.7228 -0.38327,1.77708 -0.38327,2.5905 0,0.53585 -0.14904,1.22552 0.54432,1.33062 l 0.72583,-4.77819 h -0.12094 m 18.62887,0.36283 v 0.12094 h -0.12094 v -0.12094 h 0.12094 m -81.22916,1.1492 c 0.0426,0.28618 0.19761,0.44195 0.48385,0.4839 v -0.4839 h -0.48385 m 0.72578,1.27015 -0.0511,1.43188 -0.97721,1.53184 c 1.38511,0.40925 1.46762,-1.48444 1.81454,-2.35888 -0.3675,-0.30619 -0.21292,-0.6028 -0.78632,-0.60484 m 21.41115,6.29026 c 1.75153,0 1.84594,-2.2407 2.07215,-3.56851 0.0881,-0.51852 0.22612,-0.90464 0.22612,-1.45161 -1.16231,9e-5 -0.887,0.70892 -1.04393,1.56719 -0.0796,0.43288 -0.33983,0.84413 -0.44016,1.27577 -0.0588,0.25253 0.0213,0.52857 -0.0588,0.77492 -0.18866,0.57405 -0.75295,0.6884 -0.75542,1.40224 m -22.4997,-2.78249 c -0.18777,0.16991 -0.83398,0.48266 -0.88776,0.67404 -0.0715,0.2538 0.20272,1.01791 0.37775,1.20222 0.11283,0.11754 0.43788,0.28532 0.56065,0.083 0.10391,-0.17119 -0.22952,-0.69281 -0.23209,-0.93125 0.87904,0.18355 0.80681,0.80235 0.78622,1.51212 0.74958,0.0515 0.2423,0.78655 0.2419,1.27015 h 0.48382 c 0.11073,-0.40882 0.37007,-0.69202 0.78632,-0.7863 l -0.54436,0.96775 c 0.41263,0.18056 0.99313,0.27425 1.02825,0.7863 -0.36795,0.009 -0.57398,0.21718 -0.72582,0.54432 l 0.55843,0.44471 0.95368,-0.44471 -0.5444,1.51207 1.02825,-0.24231 c -0.003,0.26573 -0.0213,0.43561 -0.2423,0.6048 v 0.0609 0.0609 c 0.21333,0.15075 0.811,0.37815 0.81316,0.67084 0.003,0.28532 -0.28915,0.54458 -0.32917,0.84123 h 0.78629 l -0.23337,0.96205 0.71716,0.55003 h -1.02822 c 0,0.19248 -0.0737,0.58891 0.0971,0.72412 0.47817,0.379 1.04163,-0.0698 0.93127,0.78804 -0.175,-0.0456 -0.31853,-0.19803 -0.4939,-0.22144 -0.30149,-0.0426 -0.31981,0.30916 -0.27593,0.52375 0.0975,0.47197 0.52148,0.66897 0.52749,1.20989 l 0.72585,-0.12094 c 0.008,0.32578 0.24615,0.58844 0.23081,0.90723 -0.0129,0.29512 -0.29128,0.52963 -0.2112,0.83676 0.12307,0.47371 0.64053,0.77803 0.61325,1.34041 -0.0129,0.25849 -0.34151,0.38625 -0.3428,0.65683 0,0.2866 0.58172,0.20143 0.44198,0.5939 -0.1533,0.43062 -0.44698,0.12477 -0.72058,0.11584 -0.22016,-0.004 -0.41094,0.27765 -0.49501,0.44833 0.61887,0.14053 1.26964,0.64078 1.27015,1.27015 l -1.02822,-0.24146 0.18612,0.85702 -0.18612,0.65505 c 0.89662,0.20313 1.27014,0.61007 1.27014,1.51203 l -1.27014,-0.78625 0.23381,0.78872 0.0456,1.18995 0.50789,1.04552 c 0.51651,0.0426 0.79714,1.39228 0.71006,1.86958 -0.0426,0.23591 -0.221,0.42372 -0.21975,0.67067 0.003,0.30405 0.4148,0.4784 0.30108,0.78365 -0.0839,0.22528 -0.5881,0.46022 -0.79156,0.60753 v 0.0604 0.0609 c 0.50373,0.36581 0.49876,0.77539 0,1.14916 v 0.0609 0.0609 c 0.53419,0.37815 0.66406,-0.11796 1.20967,-0.24232 l -0.0618,0.90724 -0.66362,1.0887 h 1.02822 v 1.02826 h -0.54429 v 0.96767 h 0.54429 v -0.48382 h 0.24229 l 0.24146,1.51207 -1.27011,-0.24145 0.42034,1.02906 0.19843,0.43881 0.65151,-0.1976 c 0,0.46725 -0.0988,1.33143 -0.48389,1.63305 v 0.0609 0.0609 c 0.42116,0.29769 1.14856,0.0958 1.33061,0.72574 -0.47605,0.13459 -0.6033,0.58106 -0.60479,1.02828 h 0.7863 v -0.36282 c 0.9493,0.24783 0.25167,1.4438 0.27466,1.99506 0.0128,0.30449 0.4946,0.44971 0.67967,0.63349 0.43565,0.43289 0.0298,0.99771 0.79987,1.00042 v -0.36281 c 0.43293,0.11369 0.38583,1.2537 0.24189,1.63305 h 1.02822 l 0.36283,1.27014 -1.14921,-0.24187 v 0.24187 c 0.3871,0.0877 0.68017,0.3377 0.7863,0.72582 l 1.20967,-0.24188 c 0,0.19293 -0.0617,0.52708 0.0622,0.6896 0.3739,0.48931 1.52903,0.35089 0.96614,1.30635 l 1.51207,0.0604 0.24188,0.96771 c 0.5847,0 1.45817,-0.0169 1.51208,0.7863 -0.28575,0 -0.94237,-0.12266 -1.17314,0.0621 -0.58376,0.46736 0.72667,0.66364 0.93117,0.66364 0.003,0.8122 0.76645,0.53454 0.78629,-0.12092 0.14394,0.0299 0.2849,0.0775 0.42287,0.12987 0.76509,0.29042 -0.069,1.19038 0.0924,1.66722 0.0779,0.23251 0.5511,0.58038 0.71872,0.24019 0.13968,-0.2845 0.0383,-0.81663 0.0383,-1.12997 0.14989,0.0298 0.27212,0.0928 0.41137,0.15586 0.94978,0.43198 0.31726,1.03089 0.31428,1.83981 l 0.78629,-0.54437 v -0.0608 l -0.30235,-0.42328 c 0.46639,0.0383 1.49657,0.56501 1.45339,1.14832 -0.0213,0.26193 -0.35687,0.43018 -0.38923,0.72125 -0.0698,0.63071 0.84221,0.67075 1.23425,0.67075 l -0.24146,-1.2702 c 0.8176,0.0533 1.00322,0.68742 1.18102,1.39135 0.0456,0.17673 -0.0754,0.86858 0.20909,0.86858 0.30023,0 0.43743,-0.56073 0.6062,-0.7478 v -0.0609 -0.0609 c -0.28361,-0.22188 -0.24189,-0.514 -0.24189,-0.84681 0.50749,0.10988 1.12566,0.43927 1.27015,0.96778 h -0.54437 c 0.002,0.57751 0.14267,1.26785 0.7863,1.27016 1.1e-4,-0.18909 -0.0298,-0.42926 0.0971,-0.58593 0.38625,-0.46865 1.39207,-0.20697 1.53605,0.34366 h -0.36282 v 0.72585 l 0.96771,-0.48387 c 0.003,0.79845 0.23081,1.27012 1.02822,1.27012 -0.24444,-0.49805 -0.48386,-0.67266 -0.48386,-1.27012 l 0.97619,0.47636 0.37006,0.51535 0.77028,-0.0297 1.14921,0.0664 c 0,0.22953 -0.0528,0.53773 0.0771,0.74005 0.35899,0.55791 0.64743,-0.16395 0.64853,-0.49812 h 0.24231 c 0.008,0.83066 0.79234,0.10861 1.27015,0 v 1.51213 h 0.78629 c 0.0383,-0.47372 0.80324,-1.17268 1.2701,-1.2702 l 0.24146,1.2702 h 0.48394 c 0,-0.33858 0.21208,-1.70773 0.8308,-0.99602 0.28404,0.32661 0.19716,0.8404 0.19716,1.23795 h 0.72587 l 0.30236,-1.2702 h 0.48389 v 0.24188 h -0.24145 v 0.78629 c 0.85468,0.19419 1.2701,0.31088 1.2701,-0.78629 h 0.48386 l -0.24147,0.78629 c 0.25169,0 0.4848,-0.10561 0.72583,-0.10561 0.32194,0 0.61118,0.1912 0.94803,0.0745 0.25679,-0.0886 0.38966,-0.38368 0.62519,-0.5132 0.49425,-0.27168 1.37014,-0.44743 1.93478,-0.48418 0.001,0.31428 0.25636,1.08521 0.71177,0.98931 0.28532,-0.0601 0.48219,-0.37561 0.80035,-0.44474 0,0.60905 0.11242,0.96537 0.78629,0.96767 l -0.4839,-1.75396 c 0.52716,0 0.94301,0.17715 1.45165,0.2338 0.31939,0.0383 0.72284,-0.0775 1.02464,0.0456 0.41478,0.16737 0.21888,1.30194 1.00041,0.94097 0.0975,-0.0456 0.18609,-0.12904 0.27298,-0.19121 l 0.24145,-1.27019 h 0.78629 c -0.003,0.24444 -0.27169,0.69497 -0.19759,0.89347 0.11668,0.31215 0.67719,0.0759 0.80891,-0.0936 0.23464,-0.30235 0.11455,-0.92026 0.11455,-1.28387 h 1.02827 c 0,0.37051 -0.008,1.11861 0.59606,0.94827 0.35644,-0.10054 0.13117,-1.01256 0.46414,-1.2952 0.80154,-0.68042 1.76861,-0.19716 2.68972,-0.19716 l -0.24188,-0.48395 h 1.27019 v -0.78629 c 0.51771,0 1.02345,-0.18695 1.51207,-0.18695 0.45243,0 0.84098,0.35263 1.27015,0.41863 0.42837,0.0664 1.20827,-0.5331 1.27015,-0.95759 h -0.7863 c 0.23848,-0.8727 0.77088,-0.2504 1.25874,-0.57853 0.5195,-0.34918 0.57328,-1.01484 1.28156,-1.17546 -0.003,0.25976 -0.0255,0.50024 -0.27297,0.64848 -0.16268,0.0979 -0.43608,0.0425 -0.49258,0.26743 -0.0933,0.37221 0.51558,0.49455 0.70376,0.25722 0.24998,-0.31512 -0.0213,-0.65057 0.54599,-0.68933 v -0.48385 l 1.27014,0.24188 c -0.046,-0.34195 -0.39902,-0.59837 -0.425,-0.90719 -0.0732,-0.86248 1.27543,-0.60629 1.69515,-0.60487 l 0.0519,-1.06787 0.45766,-0.2815 1.06298,-0.70194 0.50114,0.26106 0.70857,0.0383 -0.48389,-1.27015 h 0.72581 v 0.48387 h 0.48386 l -0.24146,-1.0887 0.88799,0.0843 0.27595,-0.86991 1.29863,-1.13577 0.33771,-0.9979 1.01007,0.25805 c -0.0456,-0.35814 -0.21462,-0.6309 -0.54436,-0.78628 v 0.24144 H 220.725 v -0.4839 h 0.78629 l 0.24146,-1.51202 c 0.23463,0 0.8965,0.0839 0.89654,-0.30321 0,-0.20059 -0.2717,-0.36878 -0.35303,-0.54432 -0.0928,-0.20059 -0.0596,-0.4497 -0.0596,-0.6651 l 1.51207,0.2423 c -0.0494,-0.37048 -0.34665,-0.5326 -0.45289,-0.85791 -0.14267,-0.43607 -0.1482,-1.5932 0.20356,-1.93081 0.25167,-0.24147 0.71495,-0.23551 1.03584,-0.23551 v -0.48385 c -0.68503,-0.002 -1.08614,-0.65159 -0.58883,-1.23816 0.19078,-0.22528 0.53343,-0.22444 0.72169,-0.4589 0.1235,-0.15459 0.0988,-0.30491 0.0481,-0.48037 l -0.72582,0.12096 v -0.9678 h 0.7863 c 0,-0.24529 0.0383,-0.52423 -0.0456,-0.75973 -0.14138,-0.41434 -0.71688,-0.76609 -0.22996,-1.21371 0.19035,-0.17503 0.52051,-0.1299 0.75759,-0.32536 v -0.0609 -0.0609 c -0.35942,-0.28447 -0.0481,-0.63613 0.24146,-0.84676 -0.20952,-0.45242 -0.5077,-0.65973 0,-1.02826 v -0.0609 -0.0609 c -0.55983,-0.43786 -0.0537,-1.05871 -0.004,-1.57706 0.0255,-0.3147 -0.1959,-0.59185 -0.35389,-0.84224 l -0.84672,0.24145 v -0.72577 h 0.72578 v -0.48386 h -0.48418 v -1.02822 c 0.50042,0.1137 0.71914,0.58597 1.27015,0.4233 l -1.02827,-1.45161 h 0.72583 c -0.0566,-0.4233 -0.28873,-0.71253 -0.72583,-0.72578 v -0.60484 c 0.17205,0.0383 0.52402,0.20994 0.66038,0.0256 0.21037,-0.2832 -0.38668,-0.59317 -0.35772,-0.86121 0.0456,-0.40668 0.47589,-0.38667 0.66331,-0.64997 0.5901,-0.82922 -0.78936,-0.25381 -0.96609,-0.20909 l 0.33898,-1.07 0.36453,-0.32748 -0.21931,-0.59833 c 0.48798,0 0.86209,0.0469 1.27018,-0.24145 v -0.0609 -0.0609 c -0.31811,-0.23848 -0.47916,-0.50974 -0.4839,-0.90728 l -1.02817,0.48394 0.24231,-1.20972 h 0.78629 l -0.19759,-0.78271 0.60407,-0.47321 0.0771,-1.04244 h -0.48385 v 0.48385 h -0.24146 c 0,-0.4356 0.2355,-0.81048 0.2355,-1.21202 0,-0.36368 -0.33685,-0.65173 -0.0426,-0.99122 0.23124,-0.26658 0.43927,-0.0128 0.70002,-0.0732 0.23038,-0.0533 0.4324,-0.43514 0.52192,-0.63206 0.17375,-0.38283 -0.25253,-0.67718 -0.19675,-1.08094 0.0298,-0.22655 0.20953,-0.38837 0.26489,-0.60743 0.0694,-0.27212 -0.11242,-0.5324 -0.0481,-0.78583 0.1137,-0.45012 0.31854,-0.63009 0.31854,-1.14941 h -0.78629 c 0.0741,-0.32791 0.27425,-0.47092 0.4497,-0.73694 0.11966,-0.18142 0.0502,-0.40414 0.15671,-0.5847 0.23081,-0.39136 0.79664,-0.19163 1.1475,-0.19036 v -0.72581 h -0.36283 c 0.10263,-0.35347 0.55889,-0.51874 0.9072,-0.54433 v -0.48391 h -0.54438 l 0.7863,-1.63302 0.72577,0.12094 c 0,-0.27126 -0.13585,-0.64601 -0.0822,-0.89607 0.0383,-0.16226 0.20015,-0.26275 0.2981,-0.3854 0.1367,-0.17119 0.2027,-0.43833 0.40967,-0.54173 0.60901,-0.3032 1.25456,0.29427 1.91502,-0.17247 -0.17418,-0.39987 -0.54833,-0.75703 -0.69023,-1.15159 -0.14138,-0.39306 -0.004,-0.74123 -0.39987,-1.03767 -0.31088,-0.23507 -0.95813,-0.10902 -1.32951,-0.10902 -0.84204,0 -1.71597,0.0596 -2.52301,0.26999 -0.44744,0.11669 -0.85698,0.37986 -1.29195,0.49957 -0.83803,0.23123 -1.64954,0.50246 -2.48557,0.71497 -0.43927,0.11115 -1.08218,0.10433 -1.47609,0.33173 -0.26744,0.15501 -0.4101,0.46972 -0.65948,0.65007 -0.425,0.30703 -0.90701,0.30831 -1.25443,0.74179 -0.25125,0.313 -0.30065,0.75358 -0.56438,1.06297 -0.89067,1.04525 -1.94892,2.21784 -2.40253,3.55791 -0.25807,0.76214 -0.15927,1.54853 -0.30193,2.3269 -0.15544,0.8494 -0.62809,1.58566 -0.52073,2.48523 0.0298,0.25764 0.22059,0.4279 0.2768,0.67068 0.0928,0.4037 -0.0604,0.84514 0.046,1.24727 0.27595,1.04598 0.72973,1.98192 0.92422,3.04711 0.12989,0.70976 0.12222,1.47102 0.28533,2.17193 0.31811,1.36686 0.73123,2.73269 0.98465,4.11833 0.14905,0.8132 0.11242,1.65379 0.27339,2.46411 0.12351,0.62094 0.37092,1.22347 0.51035,1.83018 0.20697,0.90234 0.14223,2.40147 0.004,3.3188 -0.0383,0.24572 -0.23252,0.42159 -0.27765,0.66774 -0.083,0.45488 0.046,0.9352 -0.0298,1.39112 -0.12052,0.70698 -0.50144,1.37989 -0.68226,2.07365 -0.11797,0.45425 0.0826,0.9641 -0.0916,1.40779 -0.3228,0.82275 -0.99364,1.4135 -1.36218,2.19232 -0.2555,0.54033 -0.24954,1.19525 -0.59069,1.70525 -0.45895,0.6857 -1.07724,1.25067 -1.58153,1.90147 -0.37177,0.47926 -0.65829,0.95766 -1.1392,1.35974 -0.29682,0.24785 -0.70695,0.30876 -1.00608,0.53704 -0.77965,0.59425 -1.31175,1.55607 -2.1336,2.08585 -0.38583,0.24868 -0.85759,0.35259 -1.25031,0.58506 -0.19674,0.11669 -0.31215,0.32621 -0.50915,0.44335 -1.15823,0.68865 -2.45073,1.16562 -3.70377,1.59931 -0.4752,0.16394 -0.89279,0.48167 -1.37439,0.6377 -0.77062,0.24997 -1.60985,0.38029 -2.37642,0.63248 -1.27079,0.41777 -2.47923,1.15104 -3.78106,1.44994 -0.46321,0.10643 -0.96903,-0.0546 -1.43585,0.0299 -0.61165,0.11542 -1.21802,0.34025 -1.83022,0.45243 -0.45017,0.0822 -0.92666,-0.0299 -1.38032,0.0212 -0.23805,0.0299 -0.43109,0.21888 -0.67315,0.21888 -0.43518,0 -0.79451,-0.25721 -1.26533,-0.22315 -0.29938,0.0212 -0.54629,0.21465 -0.84919,0.23551 -0.94246,0.0652 -1.89854,-0.0673 -2.84026,0.008 -0.1793,0.0129 -0.32025,0.17715 -0.48633,0.17715 -0.32535,0 -0.7119,-0.18012 -1.08869,-0.18012 -0.75095,0 -1.61488,0.11966 -2.35343,-0.017 -0.51895,-0.0946 -1.02725,-0.3062 -1.53499,-0.44016 -0.57737,-0.15246 -1.20852,-0.11838 -1.78675,-0.30278 -2.13135,-0.67879 -4.1176,-1.40962 -6.0689,-2.52723 -1.15522,-0.6616 -2.24591,-1.42839 -3.41159,-2.05678 -0.41777,-0.22527 -0.75125,-0.69091 -1.23532,-0.70554 -0.21633,-0.99295 -1.41459,-1.35031 -2.11933,-1.88714 -0.41181,-0.31386 -0.66084,-0.28745 -0.66293,-0.89515 -0.68012,-0.002 -1.11361,-0.62292 -1.54342,-1.09976 -0.32619,-0.36155 -0.7848,-0.5149 -1.09371,-0.83901 -0.26914,-0.28278 -0.3377,-0.70725 -0.55437,-1.024 -0.16183,-0.23593 -0.42032,-0.38028 -0.57571,-0.62005 -0.95149,-1.46837 -1.64865,-3.12286 -2.34939,-4.72906 -0.19589,-0.44786 -0.52209,-0.86016 -0.67396,-1.32247 -0.22654,-0.68959 -0.35984,-1.4524 -0.57196,-2.15898 -0.27084,-0.90248 -0.91277,-1.63524 -0.98091,-2.60261 -0.0634,-0.9022 0.0579,-1.81634 -0.008,-2.71846 -0.0426,-0.57422 -0.2389,-1.08128 -0.2389,-1.69591 0,-0.49545 -0.18695,-1.2846 0.48385,-1.33067 0,-1.38568 0.54028,-2.58416 0.77054,-3.93146 0.0813,-0.47368 -0.055,-0.97351 0.0298,-1.44612 0.0771,-0.42074 0.33131,-0.81959 0.44016,-1.23258 0.2653,-1.00416 0.59525,-2.05955 0.79817,-3.07742 0.0498,-0.25168 -0.0213,-0.51546 0.0456,-0.76568 0.1103,-0.43246 0.35772,-0.84902 0.44016,-1.29072 0.0839,-0.44877 -0.0298,-0.92581 0.0213,-1.37853 0.0256,-0.24146 0.19718,-0.43241 0.22613,-0.6731 0.14096,-1.14389 -0.11498,-2.29671 -0.54011,-3.34686 -0.17629,-0.43401 -0.58175,-0.70268 -0.90364,-1.02245 -0.65399,-0.6496 -1.32155,-1.29302 -1.95658,-1.96101 -0.76628,-0.80605 -1.7632,-1.13656 -2.75114,-1.56309 -0.23294,-0.1005 -0.3377,-0.37347 -0.57161,-0.47164 -0.17588,-0.0741 -0.37944,-0.0256 -0.56106,-0.10049 -1.58008,-0.62021 -3.01498,-1.38598 -4.69384,-1.67429 -0.30446,-0.0524 -0.49893,0.1763 -0.78165,0.20654 -0.26657,0.0298 -0.46757,-0.1912 -0.72031,-0.1912 -0.53304,0 -0.64347,0.23038 -1.20967,-0.0298 m 85.5839,0.36283 -0.0609,0.90728 c 0.20483,-0.0298 0.86648,-0.41776 0.71522,-0.68954 -0.0762,-0.13713 -0.5074,-0.17162 -0.65471,-0.21761 m -0.84671,1.14918 v 0.4839 h -0.24189 l 0.24188,-0.4839 m -21.89503,5.56449 1.2702,0.24145 c -0.003,-0.69733 -0.53582,-1.02681 -0.7533,-1.64302 -0.33855,-0.95949 -0.34494,-2.01207 -0.53257,-3.00388 -0.0426,-0.21505 -0.43424,-0.91464 -0.70845,-0.57831 -0.19121,0.23465 -0.0617,0.94169 -0.0617,1.23336 0,0.64708 0.12563,1.31529 0.33345,1.91574 0.0899,0.25977 0.3526,0.41137 0.42499,0.69533 0.0899,0.35176 0.0256,0.77765 0.0256,1.13886 m 20.68536,-3.8104 c 0.0609,0.36283 0.4233,0.36283 0.48385,0 h -0.48385 m -1.27014,2.0564 c 0.5424,-0.002 0.7239,-0.25636 0.72582,-0.7863 -0.47248,0.0128 -0.67114,0.34069 -0.72582,0.7863 m -66.53173,4.17335 c 0.35431,0.51827 0.63857,0.1861 1.14917,0.12861 0.67186,-0.0754 0.97503,-0.36921 1.55508,-0.68192 0.28915,-0.15586 0.66506,-0.26403 0.90068,-0.4991 0.19802,-0.19759 0.28702,-0.48134 0.46307,-0.69636 0.21931,-0.26786 0.88224,-0.64618 0.67361,-1.07493 -0.34835,-0.7162 -0.90404,0.48219 -1.05002,0.62506 -0.20952,0.20442 -0.48015,0.25296 -0.68831,0.44787 -0.36751,0.34324 -0.82947,0.6568 -1.23386,0.97768 -0.58776,0.46648 -1.25789,0.20569 -1.76942,0.77313 m 64.23332,-0.18184 v 0.54433 h -0.24146 v -0.54433 h 0.24146 m -14.33458,0.7863 c 0,0.80085 0.15885,1.83351 0.5755,2.53791 0.17162,0.29085 0.48445,0.46269 0.70219,0.7119 0.59581,0.68153 0.74353,1.04448 1.7465,1.04448 -6.7e-4,-0.6946 -0.35899,-1.04955 -0.73196,-1.58983 -0.43922,-0.63644 -0.82836,-1.33986 -1.37652,-1.90071 -0.33386,-0.34153 -0.35984,-0.78693 -0.91571,-0.80375 m 13.85072,1.75395 v 0.72583 h -0.24188 v -0.72583 h 0.24188 m -74.57606,2.78229 h 0.48392 c -0.003,-0.64398 -0.48166,-0.64402 -0.48392,0 m 0.48392,1.51207 c 0.14096,0 0.28317,0.004 0.42328,-0.001 0.8685,-0.0383 -0.10347,-0.97392 -0.38667,-0.40285 -0.0575,0.11626 -0.0383,0.27893 -0.0383,0.40413 m 1.51207,6.53223 v 0.48386 h -0.24186 v -0.48386 h 0.24186 m -1.02815,2.54034 c 0.57725,-0.0962 0.003,-0.90877 0,0 m 0,1.27015 0.78622,0.24146 c -0.0702,-0.52905 -0.50018,-0.84805 -0.78622,-0.24152 m 71.85423,1.99593 v 1.51203 c -0.68324,-0.0988 -0.4839,-1.00194 -0.4839,-1.51203 h 0.4839 m -0.54433,3.02415 v 0.24231 h -0.24188 v -0.24231 h 0.24188 m -0.72578,7.56045 c 0.37263,-0.002 0.61536,-0.0673 0.78621,-0.42328 -0.36666,-0.10563 -0.62396,0.0945 -0.78621,0.42328 m -4.05245,7.07656 v 0.48382 h 0.54441 v -0.48948 h -0.54441 m -58.18502,1.51208 v -1.02827 c -0.771,0.002 -0.6814,0.92935 0,1.02827 m 1.99593,0.96766 c -0.1597,-1.20337 -1.65176,-0.003 -0.48381,0 h 0.48381 m 51.65286,2.05652 c 0.58675,-0.0885 1.02614,-0.42699 1.02819,-1.0282 -0.71109,5e-5 -1.02763,0.31258 -1.02819,1.0282 m -46.3303,1.75401 v 0.24147 h 0.24188 v -0.24147 h -0.24197 m 40.28201,1.63306 v 0.0609 0.0609 l -0.72586,0.2419 v -0.48387 l 0.72586,0.12096 m -2.23794,1.14919 h 0.4839 c -0.0604,-0.36282 -0.4233,-0.36282 -0.4839,0 m -21.95549,0 v 0.72579 h -0.24146 v -0.72579 h 0.24146 m 20.92728,0.60479 v 0.0609 0.0609 l 0.78628,0.24188 c -0.0716,-0.52515 -0.38198,-0.64865 -0.78628,-0.36281 m -3.20561,0.48391 c -0.18141,0.61267 0.33642,1.24475 0.98202,0.82984 0.1912,-0.12309 0.35942,-0.53874 0.0877,-0.67242 -0.28532,-0.14096 -0.7458,-0.0566 -1.06944,-0.15714 m -24.0119,0.9072 c 0.1252,0.86012 0.99974,0.003 0,0 m 4.05233,0 v 0.48386 h -0.24146 v -0.48386 h 0.24146 m 15.36283,0 v 0.48386 h -0.24145 v -0.24146 h -0.4839 v -0.12096 l 0.72583,-0.12092 m -8.04431,0.24145 v 0.48383 h -0.54437 v -0.48376 h 0.54437 m 3.74993,0 v 0.24144 h -0.24146 v -0.24144 h 0.24146 m 2.35888,0.48383 -0.0609,0.54438 h 0.24188 l -0.0609,-0.54438 h -0.12094 m -3.87095,0.7863 v -0.0609 c -0.19248,-0.23335 -0.89782,-0.66844 -0.89646,-2e-5 6.7e-4,0.52656 0.70368,0.19673 0.89646,0.0604 z"
         id="path10"
         inkscape:label="cecropia" /><path
         id="path6"
         style="fill:#0072b2;fill-opacity:1;stroke-width:0.497254"
         d="m 295.81433,41.813405 c -2.83388,0 -5.18402,0.0595 -5.22239,0.13176 -0.0384,0.0724 0.26801,11.83007 0.68072,26.12821 0.4127,14.29809 0.75467,26.82922 0.76006,27.84696 0.0141,2.6538 -0.26734,2.54083 5.95126,2.38946 2.65794,-0.0649 14.84451,-0.35 27.08136,-0.63428 12.23684,-0.28428 24.01559,-0.5708 26.17482,-0.63631 3.92585,-0.11919 3.92565,-0.11905 3.8113,1.49619 -0.11434,1.615225 -0.11418,1.615225 5.12782,8.857025 5.242,7.24179 5.24201,7.24193 5.29824,9.9415 0.0563,2.69949 0.0561,2.69936 -4.74778,4.12118 -4.8039,1.42188 -4.80389,1.42195 -7.03846,11.06118 -1.22902,5.30158 -2.29944,9.69805 -2.37875,9.77005 -0.0793,0.0719 -0.8089,0.57269 -1.62145,1.11265 -1.47735,0.98177 -1.47737,0.98184 -3.98697,7.2683 -1.38028,3.45749 -2.47209,6.38516 -2.42617,6.50597 0.046,0.12075 0.20429,0.21959 0.35184,0.21959 0.14756,0 0.26824,0.0947 0.26824,0.21059 0,0.11581 -1.66519,4.16688 -3.70051,9.00225 -0.67008,1.59191 -0.6953,1.65648 -1.24615,2.96668 h 5.79256 c 0.28485,-0.65335 0.47393,-1.05655 0.82145,-1.86153 3.19814,-7.40763 3.54487,-8.12669 3.94156,-8.17158 1.13381,-0.12818 1.1729,-0.1684 2.37477,-2.45388 0.64774,-1.23171 1.19546,-2.26243 1.21694,-2.29015 0.0791,-0.10202 18.66396,-1.61821 21.89042,-1.78587 1.83331,-0.0953 6.09251,-0.25812 9.46488,-0.36183 3.37235,-0.10364 6.61115,-0.26393 7.19716,-0.35635 0.58601,-0.0924 1.14116,-0.16793 1.23392,-0.16793 0.0928,0 0.67755,0.94364 1.29955,2.09706 1.13088,2.09713 1.13101,2.09707 2.09454,2.20483 0.52994,0.0595 1.12322,0.14035 1.31826,0.1799 0.27398,0.0554 1.42873,2.2727 5.08041,9.75463 0.67823,1.38964 1.08919,2.19361 1.59573,3.2127 h 6.26766 c -0.90372,-1.84138 -0.9934,-2.08355 -2.24475,-4.5926 -5.34608,-10.71944 -5.34608,-10.7193 -5.01054,-11.14697 0.33554,-0.42768 0.3355,-0.42775 -2.55643,-6.02192 -2.80387,-5.42381 -2.89073,-5.62372 -2.85461,-6.56905 0.0337,-0.88415 -0.29298,-1.85166 -3.50263,-10.37269 -1.94687,-5.16859 -3.66225,-9.49083 -3.81205,-9.60516 -0.4757,-0.36297 -4.61165,-1.25692 -7.24482,-1.56575 -1.39713,-0.16387 -2.61903,-0.36878 -2.71537,-0.45546 -0.0964,-0.0866 -0.2656,-1.28045 -0.37579,-2.65298 -0.20036,-2.49547 -0.20012,-2.49533 0.42394,-3.8607 0.66134,-1.44689 0.62332,-1.41884 2.18538,-1.62193 0.77948,-0.10134 0.83218,-0.14082 0.83218,-0.62434 0,-0.45194 0.0628,-0.51623 0.50554,-0.51623 0.42794,0 0.51762,-0.0811 0.5829,-0.52706 0.0702,-0.47946 0.0324,-0.52698 -0.41821,-0.52698 -0.27237,0 -0.49506,-0.0678 -0.49506,-0.15097 0,-0.0831 -0.1977,-0.44336 -0.43943,-0.80052 -0.43949,-0.64928 -0.43966,-0.64928 0.003,-1.40532 0.44191,-0.75604 0.44191,-0.75617 0.23281,-3.77186 -0.20889,-3.012715 -0.20855,-3.015885 0.17292,-3.283815 0.26666,-0.18726 0.38178,-0.45079 0.38178,-0.87312 0,-0.55491 0.0433,-0.60487 0.52551,-0.60487 0.48385,0 0.5255,-0.0487 0.5255,-0.61454 0,-0.566 -0.0416,-0.61487 -0.5255,-0.61487 -0.49635,0 -0.52551,-0.0392 -0.52551,-0.7027 0,-0.65618 -0.0332,-0.70263 -0.5018,-0.70263 -0.4641,0 -0.51005,-0.0615 -0.61309,-0.81498 -0.0613,-0.44823 -0.11154,-1.3847 -0.11154,-2.08131 0,-1.2666 1.2e-4,-1.2668 1.60372,-1.38092 0.88198,-0.0629 3.62146,-0.11398 6.08775,-0.11405 4.71869,-7e-5 7.3964,-0.22371 13.85659,-1.15653 5.75363,-0.83081 9.61734,-1.82867 12.35093,-3.18998 1.59577,-0.79471 1.80581,-1.21021 1.09742,-2.17089 -0.59183,-0.80262 -1.29695,-1.15701 -3.11886,-1.56703 -3.63384,-0.81797 -3.93737,-0.83805 -14.27105,-0.95 -5.49212,-0.0595 -10.70404,-0.15218 -11.58213,-0.20613 -1.59652,-0.0981 -1.59666,-0.0981 -1.76217,-2.36248 -0.091,-1.24544 -0.20514,-2.30435 -0.25353,-2.35282 -0.10649,-0.10682 -28.49307,0.23114 -30.72472,0.36581 -2.36576,0.14265 -2.29043,-0.0473 -2.02019,5.10262 0.11889,2.2656 0.16728,4.1681 0.10781,4.22772 -0.0595,0.0595 -0.17593,0.0352 -0.25877,-0.0554 -0.083,-0.0902 -2.89615,-8.03759 -6.25162,-17.66066 -6.10085,-17.49658 -6.10072,-17.49644 -17.49646,-20.24482 -6.26765,-1.5116 -15.43832,-3.69661 -20.37926,-4.85538 -8.98353,-2.10673 -8.98355,-2.10673 -14.13605,-2.10673 z m 86.40807,37.97707 c 2.49437,-0.007 2.49429,0.17794 2.49429,0.9143 0,0.98184 9e-5,0.9817 -4.51098,0.94898 -2.4811,-0.0176 -5.18117,-0.0773 -6.00017,-0.13176 -1.48909,-0.099 -1.48928,-0.099 -1.54583,-0.69222 -0.0311,-0.32626 0.009,-0.65314 0.0878,-0.72635 0.0793,-0.0733 2.80464,-0.18876 6.05657,-0.25677 1.47814,-0.0304 2.58683,-0.0541 3.41829,-0.0561 z m -13.99507,0.15651 c 0.33831,-0.007 0.35243,0.15454 0.40947,0.79619 0.0418,0.4706 0.0653,0.87367 0.0521,0.89584 -0.0132,0.0223 -1.40233,0.2732 -3.08692,0.55795 -3.89479,0.65828 -5.85335,1.15586 -6.67789,1.6963 -0.76668,0.50245 -0.81518,0.51097 -0.94771,0.16469 -0.0648,-0.16935 -0.33547,-0.26353 -0.75757,-0.26353 -0.65668,0 -0.65662,-1.3e-4 -0.7683,-1.18574 -0.26076,-2.76839 -0.81237,-2.50303 5.20468,-2.50303 2.92531,0 5.67579,-0.0494 6.1122,-0.10905 0.19838,-0.0277 0.34711,-0.048 0.45988,-0.0493 z"
         inkscape:label="hirst" /><path
         id="path1-1"
         d="m 549.10841,41.81329 c -2.09078,-0.0187 -4.12945,0.92939 -5.33256,2.79225 -1.06949,1.49017 -1.28331,3.19323 -1.06951,4.89645 0.24412,0.97198 0.62835,1.80476 1.19079,2.53898 l -1.26444,1.96694 -1.63703,-1.09949 c -1.0695,-0.63869 -2.35287,-0.42576 -2.99452,0.63879 l -24.64252,36.37705 c -0.53036,0.40392 -0.99739,0.9378 -1.02095,1.47568 -0.07,0.17114 -0.0973,0.35656 -0.074,0.56363 l -1.2118,8.8459 -4.27776,6.38677 c -0.42785,0.42585 -0.64186,0.85133 -0.42805,1.49001 0,0.42587 0.42789,1.06449 0.85549,1.2773 l 0.19615,0.13287 -3.61812,5.40236 c -0.42785,0.42587 -0.64185,0.85135 -0.42806,1.49001 0,0.42588 0.4279,1.06448 0.85549,1.2773 l 7.05828,4.68372 c 0.42783,0.2128 0.85537,0.42575 1.28322,0.42575 0.21381,0 0.21393,0 0.64178,0.21304 0.42785,0 1.06944,-0.42592 1.28323,-0.85153 l 3.63694,-5.42981 c 0.35616,0.1724 0.71241,0.32035 1.06858,0.32035 h 0.64177 c 0.42786,0 1.06944,-0.42592 1.28325,-0.85153 l 4.7055,-7.02557 c 0.0155,-0.0259 0.0281,-0.0526 0.0429,-0.0786 l 6.76558,-3.79881 c 0.55793,-0.12026 1.14652,-0.46294 1.31897,-0.80599 l 5.08281,-7.50186 c 2.10841,1.11969 4.52632,1.75359 7.10871,1.75359 0.24137,0 0.48081,-0.006 0.71917,-0.0174 2.25606,3.87496 3.55828,8.43929 3.55828,13.00434 0,4.1035 -0.90531,8.05604 -2.83376,11.73517 -3.41153,-2.18323 -7.45602,-3.43261 -11.71021,-3.43261 -9.59066,0 -17.80886,6.27945 -20.7038,14.90233 h -31.05582 c -1.2833,0 -2.13873,0.85147 -2.13873,2.12882 v 8.51559 c 0,1.27736 0.85543,2.12882 2.13873,2.12882 h 29.94373 v 8.51559 h -38.49895 c -1.2833,0 -2.13873,0.85146 -2.13873,2.12881 v 8.51559 c 0,1.27735 0.85543,2.12882 2.13873,2.12882 h 115.49718 c 1.28331,0 2.13874,-0.85147 2.13874,-2.12882 v -8.51559 c 0,-1.27686 -0.85543,-2.1285 -2.13874,-2.1285 h -28.25124 l -3.58836,-11.98314 c 8.34797,-8.84843 13.01788,-20.26988 13.01788,-32.29846 0,-11.26118 -4.0483,-21.8856 -11.29343,-30.39298 -0.55267,-3.64794 -2.40948,-6.83685 -5.08938,-9.09668 l 3.33609,-5.21771 c 0.42786,-0.63868 0.42776,-1.06469 0.42776,-1.70337 0,-0.42586 -0.4279,-1.06448 -0.85549,-1.27729 l -1.70879,-1.14753 1.29514,-2.01497 c 0.486,0.11601 0.98433,0.18184 1.48285,0.18184 0.42785,0 0.85539,-0.21272 1.28324,-0.21272 1.71114,-0.42587 3.20828,-1.27745 4.06373,-2.76761 1.06951,-1.27736 1.49713,-2.98043 1.06953,-4.6834 -0.4276,-1.70297 -1.28309,-3.19344 -2.7802,-4.04492 l -10.69456,-7.23861 c -1.12293,-0.71851 -2.39626,-1.07767 -3.65073,-1.08889 z m 0.0148,4.28227 c 0.42784,0 0.85537,0.21272 1.28323,0.42577 l 10.69426,7.23829 c 0.42784,0.21282 0.64169,0.63893 0.85549,1.2776 0,0.42587 -0.21369,1.0644 -0.42775,1.49003 -0.42785,0.42585 -0.8553,0.63871 -1.49694,0.85153 -0.42786,0.2128 -1.06967,7e-5 -1.49728,-0.21274 l -10.69425,-7.23829 c -0.42786,-0.2128 -0.85549,-0.63861 -0.85549,-1.2773 0,-0.63867 -10e-5,-1.27749 0.42773,-1.70335 0.42786,-0.63869 1.06934,-0.85154 1.71099,-0.85154 z m -1.80782,8.68869 7.02035,4.75172 -0.93509,1.67498 -3.5288,-2.34185 -3.51755,-2.36243 z m -7.17515,3.02059 14.11622,9.58016 -2.2716,3.28913 c -1.79386,-0.74769 -3.77152,-1.16001 -5.85587,-1.16001 -0.0363,0 -0.0717,0.002 -0.1078,0.003 -0.0356,0 -0.0704,-0.003 -0.10592,-0.003 -8.34145,0 -14.9717,6.59955 -14.9717,14.90236 0,4.04487 1.71106,7.87694 4.49147,10.64471 l -3.74474,5.59045 -14.16197,-9.5109 z m 5.98844,15.96692 c 0.13358,0 0.26594,0.005 0.39829,0.009 1.7911,0.0811 3.56986,0.7025 5.1627,1.6937 0.22659,0.1352 0.46277,0.22015 0.70038,0.26606 2.69944,1.91528 4.43288,5.05896 4.43288,8.67497 0,5.96091 -4.70535,10.64471 -10.69425,10.64471 -2.31346,0 -4.43354,-0.70085 -6.16674,-1.90237 -0.0764,-0.0816 -0.15853,-0.15833 -0.24976,-0.22644 -1.89638,-1.452 -3.1947,-3.30048 -3.82934,-5.40985 -0.0196,-0.0653 -0.0368,-0.13195 -0.0552,-0.19807 -0.0296,-0.10552 -0.0577,-0.21168 -0.084,-0.31846 -0.0238,-0.0978 -0.046,-0.19634 -0.0671,-0.29538 -0.0175,-0.0816 -0.0336,-0.16341 -0.0492,-0.24548 -0.0203,-0.10678 -0.0394,-0.21417 -0.0564,-0.32221 -0.013,-0.0836 -0.0247,-0.16764 -0.0357,-0.25171 -0.0138,-0.10354 -0.0278,-0.20707 -0.0389,-0.3116 -0.011,-0.10554 -0.019,-0.21163 -0.027,-0.31815 -0.006,-0.0848 -0.0143,-0.16921 -0.0188,-0.25453 -0.0103,-0.19535 -0.0163,-0.39205 -0.0163,-0.59015 0,-5.9609 4.70537,-10.64471 10.69426,-10.64471 z m -4.27746,4.25795 c -0.53472,0 -1.06941,0.21275 -1.49727,0.63849 -0.85569,0.85148 -0.85545,2.12892 0,2.98066 l 2.7805,2.76729 -2.7805,2.76764 c -0.85545,0.85148 -0.85545,2.12891 0,2.98066 0.42786,0.42586 0.85563,0.63847 1.49727,0.63847 0.64165,0 1.06935,-0.21261 1.49695,-0.63847 l 2.78051,-2.76763 2.78017,2.76763 c 0.42786,0.42586 0.85563,0.63847 1.49727,0.63847 0.64164,0 1.06936,-0.21261 1.49696,-0.63847 0.85545,-0.85149 0.85545,-2.12894 0,-2.98066 l -2.7802,-2.76764 2.78019,-2.76729 c 0.85595,-0.85174 0.85608,-2.12918 0,-2.98066 -0.85544,-0.85149 -2.13883,-0.85149 -2.99454,0 l -2.78049,2.76762 -2.78019,-2.76762 c -0.42772,-0.42574 -0.96254,-0.63849 -1.49727,-0.63849 z m 18.62932,10.67903 c 4.47802,7.01745 7.03666,15.09429 7.03666,23.38362 0,9.96711 -3.60897,19.51112 -9.97884,27.16028 l -0.92946,-3.10322 c -1.0695,-3.83207 -2.99431,-7.02545 -5.77472,-9.58016 2.5666,-4.47075 3.85003,-9.36741 3.85003,-14.68962 0,-4.62692 -1.25407,-9.25291 -3.34644,-13.46942 4.40657,-1.60069 7.80585,-5.18658 9.14277,-9.70148 z m -44.3072,6.86461 5.89349,3.9582 5.88188,4.04523 -4.05026,2.33375 -1.40389,-0.95042 -6.95109,-4.79007 z m -2.44864,8.59482 7.01596,4.74859 -2.20266,3.38863 -7.05827,-4.6837 z m -2.94063,8.21958 3.58241,2.42483 -2.24528,3.45351 -3.636,-2.34185 z m 25.07841,12.47846 c 3.87772,0 7.53721,1.35084 10.48931,3.61541 0.1153,0.16141 0.25499,0.30718 0.41866,0.42918 2.7804,2.12885 4.70553,5.10971 5.77503,8.51591 l 5.77473,19.37302 h -39.99656 v -10.64441 -3.83219 c 0,-0.78786 0.0588,-1.56259 0.16233,-2.32375 0.10702,-0.60874 0.26665,-1.1915 0.47944,-1.72115 0.0887,-0.26471 0.10044,-0.52945 0.0574,-0.79413 2.12873,-7.25523 8.89953,-12.61789 16.8397,-12.61789 z m -0.42806,4.25762 c -7.05816,0 -12.833,5.74809 -12.833,12.77354 0,7.02545 5.77484,12.77354 12.833,12.77354 7.05815,0 12.8333,-5.74809 12.8333,-12.77354 0,-7.02545 -5.77515,-12.77354 -12.8333,-12.77354 z m 0,4.25795 c 4.70535,0 8.55552,3.83204 8.55552,8.51559 0,4.68355 -3.85017,8.51559 -8.55552,8.51559 -4.70535,0 -8.55522,-3.83204 -8.55522,-8.51559 0,-4.68355 3.84987,-8.51559 8.55522,-8.51559 z m -2.99422,3.40612 c -0.53472,0 -1.06942,0.21306 -1.49728,0.63881 -0.85544,0.85148 -0.85544,2.1286 0,2.98033 l 1.49728,1.49033 -1.49728,1.49002 c -0.85544,0.85148 -0.85544,2.12893 0,2.98066 0.42786,0.42586 0.85563,0.6388 1.49728,0.6388 0.42784,0 1.06935,-0.21294 1.49695,-0.6388 l 1.49727,-1.49002 1.49694,1.49002 c 0.42786,0.42586 0.85562,0.6388 1.49727,0.6388 0.64165,0 1.06935,-0.21294 1.49695,-0.6388 0.85545,-0.85149 0.85545,-2.12892 0,-2.98066 l -1.49695,-1.49002 1.49695,-1.49033 c 0.85595,-0.85173 0.85608,-2.12885 0,-2.98033 -0.85545,-0.85149 -2.13884,-0.85149 -2.99454,0 l -1.49726,1.49001 -1.49695,-1.49001 c -0.42772,-0.42575 -0.96255,-0.63881 -1.49728,-0.63881 z m -46.19903,2.98035 h 27.95856 c -0.0175,0.14569 -0.0341,0.29179 -0.0486,0.43824 -0.1035,0.55783 -0.10528,1.18936 -0.10528,1.69057 v 0.42576 1.70337 h -27.80467 z m -8.55521,21.28942 h 38.49895 44.91577 27.80469 v 4.25795 H 477.68592 Z"
         style="fill:#0072b2;fill-opacity:1;stroke-width:0.250063"
         inkscape:label="microscopio" /><g
         id="g5"
         transform="matrix(0.22975665,0,0,0.22975665,648.03516,41.124125)"
         inkscape:label="R"><path
           d="M 361.453,485.937 C 162.329,485.937 0.906,377.828 0.906,244.469 0.906,111.109 162.329,3 361.453,3 560.578,3 722,111.109 722,244.469 722,377.828 560.578,485.937 361.453,485.937 Z M 416.641,97.406 c -151.352,0 -274.047,73.908 -274.047,165.078 0,91.17 122.695,165.078 274.047,165.078 151.351,0 263.046,-50.529 263.046,-165.078 0,-114.513 -111.695,-165.078 -263.046,-165.078 z"
           fill="url(#gradientFill-1)"
           fill-rule="evenodd"
           id="path4"
           style="fill:url(#gradientFill-1)" /><path
           d="m 550,377 c 0,0 21.822,6.585 34.5,13 4.399,2.226 12.01,6.668 17.5,12.5 5.378,5.712 8,11.5 8,11.5 L 696,559 557,559.062 492,437 c 0,0 -13.31,-22.869 -21.5,-29.5 -6.832,-5.531 -9.745,-7.5 -16.5,-7.5 -4.702,0 -33.026,0 -33.026,0 L 421,558.974 298,559.026 V 152.938 h 247 c 0,0 112.5,2.029 112.5,109.062 0,107.033 -107.5,115 -107.5,115 z m -53.5,-135.976 -74.463,-0.048 -0.037,69.05 74.5,-0.024 c 0,0 34.5,-0.107 34.5,-35.125 0,-35.722 -34.5,-33.853 -34.5,-33.853 z"
           fill="url(#gradientFill-2)"
           fill-rule="evenodd"
           id="path5"
           style="fill:url(#gradientFill-2)" /></g><g
         id="g12"
         inkscape:label="abundancia"
         transform="matrix(0.17649676,0,0,0.17649676,849.36983,38.516435)"><g
           id="g10"
           transform="matrix(1.3333334,0,0,1.3333334,115.63371,0)"><text
             x="108"
             y="498.53"
             style="font-size:11.04px;font-family:Arial"
             textLength="31.280001"
             lengthAdjust="spacingAndGlyphs"
             id="text30">0.87%</text><text
             x="409.73999"
             y="43.560001"
             style="font-size:11.04px;font-family:Arial"
             textLength="37.41"
             lengthAdjust="spacingAndGlyphs"
             id="text31">44.07%</text><text
             x="155.55"
             y="214.17"
             style="font-size:11.04px;font-family:Arial"
             textLength="31.280001"
             lengthAdjust="spacingAndGlyphs"
             id="text32">7.69%</text><text
             x="162.38"
             y="157.3"
             style="font-size:11.04px;font-family:Arial"
             textLength="31.280001"
             lengthAdjust="spacingAndGlyphs"
             id="text33">8.67%</text><text
             x="150.85001"
             y="271.04999"
             style="font-size:11.04px;font-family:Arial"
             textLength="31.280001"
             lengthAdjust="spacingAndGlyphs"
             id="text34">7.02%</text><text
             x="113.27"
             y="384.79001"
             style="font-size:11.04px;font-family:Arial"
             textLength="31.280001"
             lengthAdjust="spacingAndGlyphs"
             id="text35">1.63%</text><text
             x="109.09"
             y="441.66"
             style="font-size:11.04px;font-family:Arial"
             textLength="31.280001"
             lengthAdjust="spacingAndGlyphs"
             id="text36">1.03%</text><text
             x="127.03"
             y="327.92001"
             style="font-size:11.04px;font-family:Arial"
             textLength="31.280001"
             lengthAdjust="spacingAndGlyphs"
             id="text37">3.60%</text><text
             x="243.69"
             y="100.43"
             style="font-size:11.04px;font-family:Arial"
             textLength="37.41"
             lengthAdjust="spacingAndGlyphs"
             id="text38">20.25%</text></g><g
           id="g2"
           transform="matrix(1.3333334,0,0,1.3333334,115.63371,0)"><text
             x="23.83"
             y="497.31"
             style="font-size:11px;font-family:Arial;fill:#000000"
             textLength="52.599998"
             lengthAdjust="spacingAndGlyphs"
             id="text39">Arecaceae</text><text
             x="48.91"
             y="440.42999"
             style="font-style:italic;font-size:11px;font-family:Arial;fill:#000000"
             textLength="27.52"
             lengthAdjust="spacingAndGlyphs"
             id="text40">Pinus</text><text
             x="25.059999"
             y="383.56"
             style="font-size:11px;font-family:Arial;fill:#000000"
             textLength="51.360001"
             lengthAdjust="spacingAndGlyphs"
             id="text41">Myrtaceae</text><text
             x="32.990002"
             y="326.69"
             style="font-size:11px;font-family:Arial;fill:#000000"
             textLength="43.439999"
             lengthAdjust="spacingAndGlyphs"
             id="text42">Poaceae</text><text
             x="27.5"
             y="269.82001"
             style="font-size:11px;font-family:Arial;fill:#000000"
             textLength="48.93"
             lengthAdjust="spacingAndGlyphs"
             id="text43">Moraceae</text><text
             x="5.48"
             y="212.95"
             style="font-size:11px;font-family:Arial;fill:#000000"
             textLength="70.949997"
             lengthAdjust="spacingAndGlyphs"
             id="text44">Cupressaceae</text><text
             x="34.240002"
             y="156.07001"
             style="font-style:italic;font-size:11px;font-family:Arial;fill:#000000"
             textLength="42.18"
             lengthAdjust="spacingAndGlyphs"
             id="text45">Fraxinus</text><text
             x="23.85"
             y="99.199997"
             style="font-size:11px;font-family:Arial;fill:#000000"
             textLength="52.580002"
             lengthAdjust="spacingAndGlyphs"
             id="text46">Urticaceae</text><text
             x="32.400002"
             y="42.330002"
             style="font-style:italic;font-size:11px;font-family:Arial;fill:#000000"
             textLength="44.029999"
             lengthAdjust="spacingAndGlyphs"
             id="text47">Cecropia</text><text
             x="95.730003"
             y="541.52002"
             style="font-size:11px;font-family:Arial;fill:#000000"
             textLength="6.1199999"
             lengthAdjust="spacingAndGlyphs"
             id="text48">0</text><text
             x="162.38"
             y="541.52002"
             style="font-size:11px;font-family:Arial;fill:#000000"
             textLength="12.24"
             lengthAdjust="spacingAndGlyphs"
             id="text49">10</text><text
             x="232.09"
             y="541.52002"
             style="font-size:11px;font-family:Arial;fill:#000000"
             textLength="12.24"
             lengthAdjust="spacingAndGlyphs"
             id="text50">20</text><text
             x="301.79999"
             y="541.52002"
             style="font-size:11px;font-family:Arial;fill:#000000"
             textLength="12.24"
             lengthAdjust="spacingAndGlyphs"
             id="text51">30</text><text
             x="371.51001"
             y="541.52002"
             style="font-size:11px;font-family:Arial;fill:#000000"
             textLength="12.24"
             lengthAdjust="spacingAndGlyphs"
             id="text52">40</text><text
             x="441.22"
             y="541.52002"
             style="font-size:11px;font-family:Arial;fill:#000000"
             textLength="12.24"
             lengthAdjust="spacingAndGlyphs"
             id="text53">50</text><text
             x="214.36"
             y="554.59003"
             style="font-size:11px;font-family:Arial;fill:#000000"
             textLength="39.740002"
             lengthAdjust="spacingAndGlyphs"
             id="text54">Relative</text><text
             x="257.14999"
             y="554.59003"
             style="font-size:11px;font-family:Arial;fill:#000000"
             textLength="54.459999"
             lengthAdjust="spacingAndGlyphs"
             id="text55">abundance</text><text
             x="314.66"
             y="554.59003"
             style="font-size:11px;font-family:Arial;fill:#000000"
             textLength="17.110001"
             lengthAdjust="spacingAndGlyphs"
             id="text56">(%)</text></g><g
           id="g11"
           transform="matrix(1.3333334,0,0,1.3333334,115.63371,0)"><rect
             x="98.790001"
             y="468.98001"
             width="6.0799999"
             height="51.18"
             style="fill:#0072b2;fill-opacity:1;stroke:none;stroke-width:1.07;stroke-linecap:butt;stroke-linejoin:miter"
             id="rect22" /><rect
             x="98.790001"
             y="14.01"
             width="307.20999"
             height="51.18"
             style="fill:#0072b2;fill-opacity:1;stroke:none;stroke-width:1.07;stroke-linecap:butt;stroke-linejoin:miter"
             id="rect23" /><rect
             x="98.790001"
             y="184.63"
             width="53.639999"
             height="51.18"
             style="fill:#0072b2;fill-opacity:1;stroke:none;stroke-width:1.07;stroke-linecap:butt;stroke-linejoin:miter"
             id="rect24" /><rect
             x="98.790001"
             y="127.75"
             width="60.459999"
             height="51.18"
             style="fill:#0072b2;fill-opacity:1;stroke:none;stroke-width:1.07;stroke-linecap:butt;stroke-linejoin:miter"
             id="rect25" /><rect
             x="98.790001"
             y="241.5"
             width="48.939999"
             height="51.18"
             style="fill:#0072b2;fill-opacity:1;stroke:none;stroke-width:1.07;stroke-linecap:butt;stroke-linejoin:miter"
             id="rect26" /><rect
             x="98.790001"
             y="355.23999"
             width="11.36"
             height="51.18"
             style="fill:#0072b2;fill-opacity:1;stroke:none;stroke-width:1.07;stroke-linecap:butt;stroke-linejoin:miter"
             id="rect27" /><rect
             x="98.790001"
             y="412.10999"
             width="7.1700001"
             height="51.18"
             style="fill:#0072b2;fill-opacity:1;stroke:none;stroke-width:1.07;stroke-linecap:butt;stroke-linejoin:miter"
             id="rect28" /><rect
             x="98.790001"
             y="298.37"
             width="25.120001"
             height="51.18"
             style="fill:#0072b2;fill-opacity:1;stroke:none;stroke-width:1.07;stroke-linecap:butt;stroke-linejoin:miter"
             id="rect29" /><rect
             x="98.790001"
             y="70.879997"
             width="141.16"
             height="51.18"
             style="fill:#0072b2;fill-opacity:1;stroke:none;stroke-width:1.07;stroke-linecap:butt;stroke-linejoin:miter"
             id="rect30" /></g></g><g
         id="g16"
         inkscape:label="flechas"
         transform="translate(-3.9311152e-5,-291.15754)"><path
           style="fill:#000000;fill-opacity:1;stroke:#f0e442;stroke-width:3.77953;stroke-dasharray:none;stroke-opacity:1;marker-end:url(#Triangle4204)"
           d="m 248.56068,396.8504 h 13.35679"
           id="path11" /><path
           style="fill:#000000;fill-opacity:1;stroke:#f0e442;stroke-width:3.77953;stroke-dasharray:none;stroke-opacity:1;marker-end:url(#Triangle1955)"
           d="m 829.16935,396.8504 h 13.3568"
           id="path16" /><path
           style="fill:#000000;fill-opacity:1;stroke:#f0e442;stroke-width:3.77953;stroke-dasharray:none;stroke-opacity:1;marker-end:url(#Triangle8570)"
           d="M 606.21531,396.8504 H 619.5721"
           id="path17" /><path
           style="fill:#000000;fill-opacity:1;stroke:#f0e442;stroke-width:3.77953;stroke-dasharray:none;stroke-opacity:1;marker-end:url(#Triangle8139)"
           d="m 433.59809,396.8504 h 13.35679"
           id="path18" /></g></g><g
       id="g27"
       inkscape:label="titulo"
       transform="matrix(1.5889108,0,0,1.5264259,-78.85915,-1.706967e-7)"><text
         xml:space="preserve"
         style="font-weight:bold;font-size:42.6667px;font-family:'Helvetica Neue';-inkscape-font-specification:'Helvetica Neue Bold';text-align:end;text-anchor:end;fill:#000000;fill-opacity:1;stroke:none;stroke-width:3.77953;stroke-dasharray:none;stroke-opacity:1"
         x="1035.5853"
         y="33.493359"
         id="text16"
         inkscape:label="ttulo"><tspan
           sodipodi:role="line"
           id="tspan16"
           x="1035.5853"
           y="33.493359"
           style="font-size:42.6667px;stroke:none;stroke-opacity:0.0588235">Estudio aerobiolgico en la ciudad de Medelln</tspan></text></g><g
       id="g26"
       inkscape:label="textos"
       transform="matrix(1.5264423,0,0,1.5264423,-28.848154,51.558931)"><text
         xml:space="preserve"
         style="font-style:normal;font-variant:normal;font-weight:normal;font-stretch:normal;font-size:29.3333px;font-family:'Helvetica Neue';-inkscape-font-specification:'Helvetica Neue, Normal';font-variant-ligatures:normal;font-variant-caps:normal;font-variant-numeric:normal;font-variant-east-asian:normal;text-align:center;text-anchor:middle;fill:#000000;fill-opacity:1;stroke:none;stroke-width:3.77953;stroke-dasharray:none;stroke-opacity:0.0588235"
         x="145.35629"
         y="204.24969"
         id="text17"
         inkscape:label="polen"><tspan
           sodipodi:role="line"
           id="tspan17"
           x="145.35629"
           y="204.24969"
           style="font-style:normal;font-variant:normal;font-weight:normal;font-stretch:normal;font-size:29.3333px;font-family:'Helvetica Neue';-inkscape-font-specification:'Helvetica Neue, Normal';font-variant-ligatures:normal;font-variant-caps:normal;font-variant-numeric:normal;font-variant-east-asian:normal;text-align:center;text-anchor:middle">Polen</tspan><tspan
           sodipodi:role="line"
           x="145.35629"
           y="240.91632"
           style="font-style:normal;font-variant:normal;font-weight:normal;font-stretch:normal;font-size:29.3333px;font-family:'Helvetica Neue';-inkscape-font-specification:'Helvetica Neue, Normal';font-variant-ligatures:normal;font-variant-caps:normal;font-variant-numeric:normal;font-variant-east-asian:normal;text-align:center;text-anchor:middle"
           id="tspan19">aerovagante</tspan></text><text
         xml:space="preserve"
         style="font-style:normal;font-variant:normal;font-weight:normal;font-stretch:normal;font-size:29.3333px;font-family:'Helvetica Neue';-inkscape-font-specification:'Helvetica Neue, Normal';font-variant-ligatures:normal;font-variant-caps:normal;font-variant-numeric:normal;font-variant-east-asian:normal;text-align:end;text-anchor:end;fill:#000000;fill-opacity:1;stroke:none;stroke-width:3.77953;stroke-dasharray:none;stroke-opacity:0.0588235"
         x="324.35373"
         y="204.24992"
         id="text18"
         inkscape:label="muestreador"><tspan
           sodipodi:role="line"
           id="tspan18"
           x="324.35373"
           y="204.24992"
           style="font-style:normal;font-variant:normal;font-weight:normal;font-stretch:normal;font-size:29.3333px;font-family:'Helvetica Neue';-inkscape-font-specification:'Helvetica Neue, Normal';font-variant-ligatures:normal;font-variant-caps:normal;font-variant-numeric:normal;font-variant-east-asian:normal;text-align:center;text-anchor:middle">Muestreador</tspan><tspan
           sodipodi:role="line"
           x="324.35373"
           y="240.91655"
           style="font-style:normal;font-variant:normal;font-weight:normal;font-stretch:normal;font-size:29.3333px;font-family:'Helvetica Neue';-inkscape-font-specification:'Helvetica Neue, Normal';font-variant-ligatures:normal;font-variant-caps:normal;font-variant-numeric:normal;font-variant-east-asian:normal;text-align:center;text-anchor:middle"
           id="tspan20">Hirst</tspan></text><text
         xml:space="preserve"
         style="font-style:normal;font-variant:normal;font-weight:normal;font-stretch:normal;font-size:29.3333px;font-family:'Helvetica Neue';-inkscape-font-specification:'Helvetica Neue, Normal';font-variant-ligatures:normal;font-variant-caps:normal;font-variant-numeric:normal;font-variant-east-asian:normal;text-align:center;text-anchor:middle;fill:#000000;fill-opacity:1;stroke:none;stroke-width:3.77953;stroke-dasharray:none;stroke-opacity:0.0588235"
         x="519.95917"
         y="206.0419"
         id="text21"
         inkscape:label="microscopia"><tspan
           sodipodi:role="line"
           id="tspan21"
           x="519.95917"
           y="206.0419">Microscopa</tspan><tspan
           sodipodi:role="line"
           x="519.95917"
           y="242.70853"
           id="tspan22">400x</tspan></text><text
         xml:space="preserve"
         style="font-style:normal;font-variant:normal;font-weight:normal;font-stretch:normal;font-size:29.3333px;font-family:'Helvetica Neue';-inkscape-font-specification:'Helvetica Neue, Normal';font-variant-ligatures:normal;font-variant-caps:normal;font-variant-numeric:normal;font-variant-east-asian:normal;text-align:center;text-anchor:middle;fill:#000000;fill-opacity:1;stroke:none;stroke-width:3.77953;stroke-dasharray:none;stroke-opacity:0.0588235"
         x="736.92365"
         y="206.0419"
         id="text23"
         inkscape:label="analisis"><tspan
           sodipodi:role="line"
           id="tspan23"
           x="736.92365"
           y="206.0419">Anlisis</tspan><tspan
           sodipodi:role="line"
           x="736.92365"
           y="242.70853"
           id="tspan24">de datos</tspan></text><text
         xml:space="preserve"
         style="font-style:normal;font-variant:normal;font-weight:normal;font-stretch:normal;font-size:29.3333px;font-family:'Helvetica Neue';-inkscape-font-specification:'Helvetica Neue, Normal';font-variant-ligatures:normal;font-variant-caps:normal;font-variant-numeric:normal;font-variant-east-asian:normal;text-align:center;text-anchor:middle;fill:#000000;fill-opacity:1;stroke:none;stroke-width:3.77953;stroke-dasharray:none;stroke-opacity:0.0588235"
         x="946.85126"
         y="204.24989"
         id="text25"
         inkscape:label="principales_morfotipos"><tspan
           sodipodi:role="line"
           id="tspan25"
           x="946.85126"
           y="204.24989">Principales</tspan><tspan
           sodipodi:role="line"
           x="946.85126"
           y="240.91652"
           id="tspan26">morfotipos</tspan></text></g></g></svg>
