<?xml version="1.0" encoding="UTF-8" standalone="no"?>
<svg
   width="1500"
   height="225.0164"
   xml:space="preserve"
   overflow="hidden"
   version="1.1"
   id="svg43"
   sodipodi:docname="esquema_duracion_muestreo.svg"
   inkscape:version="1.3.2 (091e20e, 2023-11-25)"
   xmlns:inkscape="http://www.inkscape.org/namespaces/inkscape"
   xmlns:sodipodi="http://sodipodi.sourceforge.net/DTD/sodipodi-0.dtd"
   xmlns="http://www.w3.org/2000/svg"
   xmlns:svg="http://www.w3.org/2000/svg"><sodipodi:namedview
     id="namedview43"
     pagecolor="#505050"
     bordercolor="#ffffff"
     borderopacity="1"
     inkscape:showpageshadow="0"
     inkscape:pageopacity="0"
     inkscape:pagecheckerboard="1"
     inkscape:deskcolor="#505050"
     inkscape:zoom="0.2616546"
     inkscape:cx="1238.2737"
     inkscape:cy="722.3263"
     inkscape:window-width="1920"
     inkscape:window-height="1035"
     inkscape:window-x="1440"
     inkscape:window-y="23"
     inkscape:window-maximized="0"
     inkscape:current-layer="svg43"
     showguides="true"><sodipodi:guide
       position="9.2362634e-06,371"
       orientation="0,-1"
       id="guide53"
       inkscape:locked="false" /></sodipodi:namedview><defs
     id="defs4"><clipPath
       id="clip0"><rect
         x="591"
         y="935"
         width="2420"
         height="371"
         id="rect1" /></clipPath><clipPath
       id="clip1"><rect
         x="1300"
         y="1172"
         width="130"
         height="131"
         id="rect2" /></clipPath><clipPath
       id="clip2"><rect
         x="1300"
         y="1172"
         width="130"
         height="131"
         id="rect3" /></clipPath><clipPath
       id="clip3"><rect
         x="1300"
         y="1172"
         width="130"
         height="131"
         id="rect4" /></clipPath></defs><path
     id="path4"
     d="m 63.178554,55.603223 c -3.186527,0 -5.769311,2.5827 -5.769317,5.769662 -6e-6,2.816404 2.019123,5.154238 4.687493,5.661481 V 184.12921 h 2.163644 V 67.034366 c 2.668375,-0.507243 4.688717,-2.845077 4.688723,-5.661481 6e-6,-3.186962 -2.584016,-5.769662 -5.770543,-5.769662 z"
     style="stroke-width:0.629443"
     inkscape:label="pin_1" /><path
     d="m 381.99938,184.12921 2.3e-4,-122.75574 h -2.16377 l -2.3e-4,122.75574 z m 4.68838,-122.75574 c 10e-6,-3.186949 -2.58333,-5.770247 -5.77002,-5.770247 -3.18672,0 -5.77005,2.583298 -5.77006,5.770247 0,3.186319 2.58331,5.769617 5.77003,5.769617 3.18669,0 5.77004,-2.583298 5.77005,-5.769617 z"
     fill="#000000"
     fill-rule="nonzero"
     fill-opacity="1"
     id="path6"
     inkscape:label="pin_2"
     style="stroke-width:0.629459" /><path
     d="m 586.57339,184.12921 2.3e-4,-122.75574 h -2.16376 l -2.3e-4,122.75574 z m 4.68839,-122.75574 c 10e-6,-3.186949 -2.58334,-5.770247 -5.77003,-5.770247 -3.18671,0 -5.77005,2.583298 -5.77005,5.770247 -1e-5,3.186319 2.58332,5.769617 5.77003,5.769617 3.18669,0 5.77005,-2.583298 5.77005,-5.769617 z"
     fill="#000000"
     fill-rule="nonzero"
     fill-opacity="1"
     id="path7"
     inkscape:label="pin_3"
     style="stroke-width:0.629459" /><path
     d="m 1436.2049,184.12921 3e-4,-122.75574 h -2.1637 l -3e-4,122.75574 z m 4.6884,-122.75574 c 0,-3.186949 -2.5834,-5.770247 -5.77,-5.770247 -3.1867,0 -5.7701,2.583298 -5.7701,5.770247 0,3.186319 2.5834,5.769617 5.7701,5.769617 3.1866,0 5.77,-2.583298 5.77,-5.769617 z"
     fill="#000000"
     fill-rule="nonzero"
     fill-opacity="1"
     id="path5"
     inkscape:label="pin_4"
     style="stroke-width:0.629459" /><rect
     x="62.096981"
     y="143.83127"
     width="1374.1079"
     height="81.200142"
     stroke="#0C7BDC"
     stroke-width="2.16376"
     stroke-linecap="butt"
     stroke-linejoin="round"
     stroke-miterlimit="10"
     stroke-opacity="1"
     fill="#0C7BDC"
     fill-opacity="1"
     id="rect7"
     style="fill:#0072b2;fill-opacity:1;stroke:none;stroke-opacity:1"
     inkscape:label="recuadro_grande" /><rect
     x="380.91769"
     y="143.83127"
     width="204.57401"
     height="81.200142"
     fill="#FFC20A"
     fill-opacity="1"
     id="rect8"
     style="fill:#f0e442;fill-opacity:1;stroke:none;stroke-width:0.629459"
     inkscape:label="recuadro_pequeño" /><path
     d="m 502.08886,184.43135 c 0,10.42918 -8.45458,18.88375 -18.88375,18.88375 m 18.88375,-18.88375 c 0,-10.42922 -8.45458,-18.88375 -18.88375,-18.88375 m 18.88375,18.88375 h 9.44188 m -28.32563,18.88375 c -10.42921,0 -18.88376,-8.45457 -18.88376,-18.88375 m 18.88376,18.88375 v 9.44188 m -18.88376,-28.32563 c 0,-10.42922 8.45455,-18.88375 18.88376,-18.88375 m -18.88376,18.88375 h -9.44263 m 28.32639,-18.88375 v -9.44188 m 0,28.32563 h 0.0315 m -3.17878,-28.32563 h 3.14731 m 0,0 h 3.14728 m 25.17835,25.17833 v 3.1473 m 0,0 v 3.14729 m -31.47294,25.17834 h 3.14731 m 0,0 h 3.14728 m -31.47367,-31.47293 v 3.1473 m 0,0 v 3.14729 m 46.12999,-25.40118 2.22544,2.22549 m 0,0 2.22546,2.22546 m -2.22546,-2.22546 -6.67633,6.67642 m 8.90179,31.15527 -2.22546,2.22545 m 0,0 -2.22544,2.22576 m 2.22544,-2.22576 -6.67633,-6.67636 m -35.60756,4.45091 2.22546,2.22545 m 0,0 2.2255,2.22576 m -2.2255,-2.22576 6.67643,-6.67636 m -4.4515,-35.60781 -2.22549,2.22548 m 0,0 -2.22548,2.22547 m 2.22548,-2.22547 6.67643,6.67642 m 2.338,13.35385 h 0.0315 m 16.49087,-9.54056 -0.0157,0.0273 m -10.99885,-0.0265 0.0157,0.0273 m 16.50692,9.51192 h -0.0315 m -5.47693,9.53944 -0.0157,-0.0274 m -11.00011,0.0271 0.0157,-0.0271"
     stroke="#000000"
     stroke-width="6.29459"
     stroke-linecap="round"
     stroke-linejoin="round"
     id="path1"
     inkscape:label="coronavirus"
     style="fill:none;stroke:#0072b2;stroke-opacity:1" /><text
     xml:space="preserve"
     style="font-style:normal;font-variant:normal;font-weight:normal;font-stretch:normal;font-size:23.4998px;font-family:'Helvetica Neue';-inkscape-font-specification:'Helvetica Neue, Normal';font-variant-ligatures:normal;font-variant-caps:normal;font-variant-numeric:normal;font-variant-east-asian:normal;text-align:center;text-anchor:middle;fill:#000000;fill-opacity:1;stroke:none;stroke-width:0.629459;stroke-opacity:1"
     x="65.094391"
     y="17.178331"
     id="text45"
     inkscape:label="semana_001"><tspan
       sodipodi:role="line"
       id="tspan45"
       x="65.094391"
       y="17.178331"
       style="stroke-width:0.629459">Semana 001</tspan><tspan
       sodipodi:role="line"
       x="65.094391"
       y="46.553043"
       id="tspan46"
       style="stroke-width:0.629459">2019-06-20</tspan></text><text
     xml:space="preserve"
     style="font-style:normal;font-variant:normal;font-weight:normal;font-stretch:normal;font-size:23.4998px;font-family:'Helvetica Neue';-inkscape-font-specification:'Helvetica Neue, Normal';font-variant-ligatures:normal;font-variant-caps:normal;font-variant-numeric:normal;font-variant-east-asian:normal;text-align:center;text-anchor:middle;fill:#000000;fill-opacity:1;stroke:none;stroke-width:0.629459;stroke-opacity:1"
     x="381.02341"
     y="17.178331"
     id="text47"
     inkscape:label="semana_039"><tspan
       sodipodi:role="line"
       id="tspan47"
       x="381.02341"
       y="17.178331"
       style="stroke-width:0.629459">Semana 039</tspan><tspan
       sodipodi:role="line"
       x="381.02341"
       y="46.553043"
       id="tspan48"
       style="stroke-width:0.629459">2020-03-19</tspan></text><text
     xml:space="preserve"
     style="font-style:normal;font-variant:normal;font-weight:normal;font-stretch:normal;font-size:23.4998px;font-family:'Helvetica Neue';-inkscape-font-specification:'Helvetica Neue, Normal';font-variant-ligatures:normal;font-variant-caps:normal;font-variant-numeric:normal;font-variant-east-asian:normal;text-align:center;text-anchor:middle;fill:#000000;fill-opacity:1;stroke:none;stroke-width:0.629459;stroke-opacity:1"
     x="585.59753"
     y="17.178331"
     id="text49"
     inkscape:label="semana_043"><tspan
       sodipodi:role="line"
       x="585.59753"
       y="17.178331"
       id="tspan50"
       style="stroke-width:0.629459">Semana 043</tspan><tspan
       sodipodi:role="line"
       x="585.59753"
       y="46.553043"
       id="tspan51"
       style="stroke-width:0.629459">2020-09-10</tspan></text><text
     xml:space="preserve"
     style="font-style:normal;font-variant:normal;font-weight:normal;font-stretch:normal;font-size:23.4998px;font-family:'Helvetica Neue';-inkscape-font-specification:'Helvetica Neue, Normal';font-variant-ligatures:normal;font-variant-caps:normal;font-variant-numeric:normal;font-variant-east-asian:normal;text-align:center;text-anchor:middle;fill:#000000;fill-opacity:1;stroke:none;stroke-width:0.629459;stroke-opacity:1"
     x="1435.2406"
     y="17.178331"
     id="text52"
     inkscape:label="semana_147"><tspan
       sodipodi:role="line"
       id="tspan52"
       x="1435.2406"
       y="17.178331"
       style="stroke-width:0.629459">Semana 147</tspan><tspan
       sodipodi:role="line"
       x="1435.2406"
       y="46.553043"
       id="tspan53"
       style="stroke-width:0.629459">2022-09-10</tspan></text></svg>
