<?xml version="1.0" encoding="UTF-8" standalone="no"?>
<!-- Created with Inkscape (http://www.inkscape.org/) -->

<svg
   width="1000"
   height="1000"
   viewBox="0 0 264.58333 264.58331"
   version="1.1"
   id="svg1"
   xml:space="preserve"
   inkscape:version="1.3.2 (091e20e, 2023-11-25)"
   sodipodi:docname="sampler_hirst.svg"
   xmlns:inkscape="http://www.inkscape.org/namespaces/inkscape"
   xmlns:sodipodi="http://sodipodi.sourceforge.net/DTD/sodipodi-0.dtd"
   xmlns="http://www.w3.org/2000/svg"
   xmlns:svg="http://www.w3.org/2000/svg"><sodipodi:namedview
     id="namedview1"
     pagecolor="#505050"
     bordercolor="#ffffff"
     borderopacity="1"
     inkscape:showpageshadow="0"
     inkscape:pageopacity="0"
     inkscape:pagecheckerboard="1"
     inkscape:deskcolor="#505050"
     inkscape:document-units="mm"
     inkscape:zoom="0.43069548"
     inkscape:cx="323.89474"
     inkscape:cy="687.26052"
     inkscape:window-width="1920"
     inkscape:window-height="1009"
     inkscape:window-x="1440"
     inkscape:window-y="23"
     inkscape:window-maximized="0"
     inkscape:current-layer="layer1" /><defs
     id="defs1" /><g
     inkscape:label="Layer 1"
     inkscape:groupmode="layer"
     id="layer1"
     transform="translate(4.0221547e-4)"><path
       id="path6"
       style="fill:#0072b2;fill-opacity:1;stroke-width:1.02979"
       d="M 10.821662,3.3333333e-6 C 4.9528132,3.3333333e-6 0.08578153,0.12279933 0.00631845,0.27285433 -0.07314443,0.42290933 0.5613609,24.772488 1.4160496,54.383247 c 0.8546877,29.610759 1.5628876,55.562213 1.5740616,57.669863 0.02913,5.49599 -0.5536461,5.26198 12.3248108,4.94853 5.504479,-0.13396 30.742368,-0.72483 56.084346,-1.31361 25.341982,-0.58876 49.735282,-1.18201 54.206942,-1.31775 8.13029,-0.24678 8.12987,-0.24661 7.89305,3.09852 -0.23681,3.34513 -0.23647,3.3451 10.61949,18.34255 10.85597,14.99744 10.85598,14.99782 10.97244,20.58841 0.11646,5.59058 0.11623,5.59025 -9.83246,8.53488 -9.94868,2.94462 -9.94865,2.94467 -14.57635,22.90712 -2.54524,10.97938 -4.76204,20.08434 -4.9263,20.23339 -0.16426,0.14904 -1.67518,1.18599 -3.35794,2.30426 -3.05953,2.0332 -3.05956,2.03342 -8.25684,15.05231 -2.85852,7.16038 -5.1196,13.22351 -5.0245,13.47359 0.0952,0.2501 0.42307,0.45476 0.72864,0.45476 0.30558,0 0.55552,0.19621 0.55552,0.43615 0,0.23992 -3.44853,8.6295 -7.6636,18.6433 -1.3877,3.29677 -1.43994,3.43044 -2.58072,6.14381 h 11.99615 c 0.58991,-1.35299 0.98147,-2.18803 1.70119,-3.85506 6.6232,-15.34085 7.34126,-16.8301 8.16279,-16.923 2.34808,-0.26545 2.42902,-0.34882 4.91804,-5.08186 1.34146,-2.55089 2.47575,-4.68546 2.52025,-4.74286 0.16378,-0.21133 38.65225,-3.35127 45.33412,-3.69848 3.7967,-0.19729 12.61734,-0.53461 19.60136,-0.74931 6.98399,-0.21469 13.69141,-0.54665 14.90501,-0.73794 1.21362,-0.19129 2.36329,-0.34778 2.5554,-0.34778 0.19212,0 1.40318,1.9542 2.6913,4.34289 2.34203,4.34304 2.34228,4.34294 4.33772,4.56612 1.09748,0.12276 2.32614,0.29059 2.73005,0.37259 0.56741,0.11517 2.95885,4.70665 10.52131,20.20135 1.40458,2.87785 2.25569,4.54286 3.3047,6.65334 h 12.98007 c -1.87157,-3.8134 -2.05731,-4.31484 -4.6488,-9.51104 -11.07152,-22.19946 -11.0715,-22.19917 -10.37662,-23.0849 0.69489,-0.88577 0.6948,-0.88585 -5.29424,-12.47107 -5.80671,-11.23251 -5.98658,-11.64654 -5.91178,-13.60434 0.0699,-1.83095 -0.60675,-3.83469 -7.25381,-21.48138 -4.03188,-10.70389 -7.58436,-19.65506 -7.89459,-19.89181 -0.98515,-0.75177 -9.55052,-2.60304 -15.00371,-3.24269 -2.89338,-0.33938 -5.4239,-0.76375 -5.62342,-0.9431 -0.19955,-0.17937 -0.55003,-2.65182 -0.77825,-5.49424 -0.41493,-5.16803 -0.41442,-5.1677 0.87798,-7.99537 1.3696,-2.99653 1.29087,-2.93841 4.52582,-3.35897 1.61426,-0.20984 1.72341,-0.29158 1.72341,-1.29295 0,-0.93593 0.13008,-1.06918 1.04695,-1.06918 0.88624,0 1.07197,-0.16789 1.20716,-1.09141 0.14535,-0.99291 0.0671,-1.0914 -0.86609,-1.0914 -0.56407,0 -1.02526,-0.14049 -1.02526,-0.31265 0,-0.17215 -0.40942,-0.91817 -0.91002,-1.65778 -0.91019,-1.34475 -0.91053,-1.34464 0.005,-2.91041 0.91518,-1.56579 0.91518,-1.56606 0.48215,-7.81141 -0.43262,-6.2391 -0.43192,-6.24579 0.3581,-6.80062 0.55223,-0.3878 0.79065,-0.93355 0.79065,-1.80816 0,-1.14925 0.0897,-1.25264 1.08831,-1.25264 1.00202,0 1.0883,-0.10065 1.0883,-1.27279 0,-1.17217 -0.0863,-1.2733 -1.0883,-1.2733 -1.02793,0 -1.08831,-0.081 -1.08831,-1.45521 0,-1.35898 -0.0688,-1.45521 -1.0392,-1.45521 -0.96114,0 -1.05629,-0.12665 -1.26969,-1.68775 -0.12694,-0.92824 -0.23099,-2.86767 -0.23099,-4.31033 0,-2.62303 2.5e-4,-2.62344 3.32123,-2.85978 1.82654,-0.13001 7.49989,-0.23603 12.60748,-0.23616 9.77219,-2.2e-4 15.31761,-0.46341 28.6964,-2.395198 11.91552,-1.720513 19.9171,-3.787097 25.57824,-6.606315 3.3048,-1.645765 3.73976,-2.506298 2.27273,-4.49585 -1.22567,-1.662202 -2.68591,-2.396018 -6.45903,-3.24528 -7.52551,-1.693858 -8.15412,-1.735543 -29.55474,-1.967322 -11.37395,-0.123185 -22.16761,-0.315115 -23.98609,-0.426847 -3.30632,-0.203146 -3.30662,-0.203187 -3.64939,-4.892724 -0.18852,-2.579246 -0.42482,-4.772107 -0.52504,-4.872571 -0.22054,-0.221146 -59.00795,0.478786 -63.6296,0.757576 -4.89939,0.295545 -4.74338,-0.09765 -4.18372,10.567314 0.2462,4.69196 0.34642,8.632036 0.22325,8.755538 -0.12319,0.123512 -0.36432,0.07201 -0.53589,-0.114722 -0.17189,-0.186732 -5.9978,-16.645488 -12.94683,-36.574512 C 105.90125,20.109779 105.90152,20.110079 82.301428,14.418244 69.321383,11.287738 50.329321,6.7627623 40.096834,4.3630443 21.49233,-8.0666667e-5 21.492296,3.3333333e-6 10.821662,3.3333333e-6 Z M 189.76912,78.648949 c 5.16573,-0.01277 5.16557,0.368418 5.16557,1.893425 0,2.033342 1.9e-4,2.033024 -9.34205,1.965254 -5.13825,-0.03727 -10.72998,-0.160071 -12.42609,-0.272851 -3.08385,-0.205056 -3.08423,-0.205001 -3.20136,-1.433504 -0.0644,-0.675677 0.0177,-1.352601 0.1819,-1.504301 0.16418,-0.151698 5.80829,-0.390843 12.54289,-0.531751 3.06117,-0.06405 5.35723,-0.112015 7.07914,-0.116272 z m -28.9832,0.324011 c 0.70063,-0.01222 0.72989,0.320111 0.84801,1.648995 0.0866,0.974515 0.1352,1.809244 0.108,1.855184 -0.0273,0.04594 -2.90415,0.565842 -6.39288,1.155485 -8.06595,1.363263 -12.12204,2.3938 -13.82963,3.512964 -1.58775,1.040631 -1.6882,1.058213 -1.96266,0.341065 -0.13423,-0.350736 -0.69475,-0.545704 -1.56889,-0.545704 -1.35996,0 -1.35984,-2.3e-4 -1.59112,-2.455664 -0.54003,-5.733165 -1.68238,-5.183663 10.77866,-5.183663 6.05821,0 11.75434,-0.101619 12.65812,-0.225826 0.41082,-0.05646 0.71884,-0.09876 0.95239,-0.102836 z" /></g></svg>
