<?xml version="1.0" encoding="UTF-8" standalone="no"?>
<!-- Created with Inkscape (http://www.inkscape.org/) -->

<svg
   width="264.58334mm"
   height="264.58301mm"
   viewBox="0 0 264.58334 264.58301"
   version="1.1"
   id="svg1"
   xml:space="preserve"
   inkscape:version="1.3.2 (091e20e, 2023-11-25)"
   sodipodi:docname="silhouette_durham_sampler.svg"
   xmlns:inkscape="http://www.inkscape.org/namespaces/inkscape"
   xmlns:sodipodi="http://sodipodi.sourceforge.net/DTD/sodipodi-0.dtd"
   xmlns="http://www.w3.org/2000/svg"
   xmlns:svg="http://www.w3.org/2000/svg"><sodipodi:namedview
     id="namedview1"
     pagecolor="#505050"
     bordercolor="#ffffff"
     borderopacity="1"
     inkscape:showpageshadow="0"
     inkscape:pageopacity="0"
     inkscape:pagecheckerboard="1"
     inkscape:deskcolor="#505050"
     inkscape:document-units="mm"
     inkscape:zoom="0.34889127"
     inkscape:cx="247.92824"
     inkscape:cy="518.78626"
     inkscape:window-width="1920"
     inkscape:window-height="1009"
     inkscape:window-x="1440"
     inkscape:window-y="23"
     inkscape:window-maximized="0"
     inkscape:current-layer="layer1" /><defs
     id="defs1" /><g
     inkscape:label="Layer 1"
     inkscape:groupmode="layer"
     id="layer1"
     transform="translate(15.395659,-32.752457)"><path
       style="fill:#0072b2;fill-opacity:1;stroke:none;stroke-width:3.63187"
       d="m 112.62856,243.96747 c -2.66928,-0.15169 -2.66928,-0.15169 -2.66928,-2.64271 0,-2.49112 0,-2.49112 -2.93438,-3.69841 -2.93441,-1.20732 -2.93441,-1.20732 -3.20312,-4.38627 -0.14789,-1.7484 -0.26886,-4.57188 -0.26886,-6.27427 0,-3.09537 0,-3.09537 -2.88279,-3.35318 -1.585537,-0.14155 -6.053857,-0.45382 -9.929637,-0.69342 -39.73311,-2.45644 -53.77394,-4.19873 -72.81737,-9.0358 -13.3682739,-3.39557 -20.3833409,-6.81479 -26.5269109,-12.92951 -3.4104651,-3.39446 -4.5949491,-5.69357 -4.3337521,-8.41188 0.385541,-4.01243 4.1089361,-7.60639 12.16085115,-11.73815 C 3.1888111,178.769 3.1888111,178.769 3.1888111,145.33684 c 0,-33.43211 0,-33.43211 -1.17447,-33.68254 -3.207508,-0.68388 -8.693505,-2.54546 -10.820017,-3.67156 -2.3652001,-1.25251 -7.4595251,-5.91717 -6.4621911,-5.91717 0.285584,0 0.519264,-0.44222 0.519264,-0.98267 0,-0.84614 0.815739,-1.359928 5.8723701,-3.698718 7.795789,-3.60572 10.60625,-4.55253 16.508434,-5.56158 23.0996219,-3.94903 52.4329019,-5.53428 108.5196089,-5.86451 31.14942,-0.18336 35.58082,-0.12066 50.18206,0.71035 32.20182,1.8328 38.88331,2.44608 54.02582,4.95934 9.25239,1.53565 12.15377,2.22001 18.28262,4.31236 6.47273,2.20974 10.54536,4.171998 10.54536,5.080878 0,2.47554 -4.12035,7.16323 -6.91754,7.87006 -1.01073,0.25525 -2.89464,0.79405 -4.18658,1.197 -2.34896,0.73268 -2.34896,0.73268 -2.61776,3.50868 -0.14789,1.52682 -0.40934,17.39956 -0.58108,35.27274 -0.31225,32.49664 -0.31225,32.49664 3.19165,34.55087 7.77357,4.55734 10.38054,7.27894 10.94971,11.43112 0.44589,3.25322 -0.8806,5.37543 -5.10701,8.1705 -6.79214,4.49198 -15.30824,8.16414 -24.32533,10.48906 -4.34415,1.12011 -32.15786,5.45109 -49.62967,7.72803 -5.81831,0.75827 -21.8273,1.5102 -35.54417,1.66955 -1.80478,0.0222 -1.80478,0.0222 -1.92188,7.15946 -0.11686,7.13847 -0.11686,7.13847 -3.42534,8.38312 -3.20058,1.20416 -3.32288,1.30189 -3.75803,3.00472 -0.24733,0.968 -0.53038,2.00029 -0.62887,2.29389 -0.17639,0.52667 -5.06461,0.61487 -12.05734,0.21756 z m 110.58223,-98.44635 c 0.0763,-17.20605 0.1197,-31.33454 0.0969,-31.39667 -0.0222,-0.0621 -5.40422,0.36548 -11.95827,0.95017 -38.01497,3.39132 -46.64358,3.89735 -73.7217,4.3237 -18.24287,0.28723 -18.24287,0.28723 -18.36447,16.14122 -0.0668,8.71966 -0.0621,15.99807 0.01,16.17427 0.0725,0.17608 9.10534,0.32213 20.07281,0.32397 10.96748,0.002 20.96159,0.12635 22.20919,0.27614 2.2683,0.27235 2.2683,0.27235 3.75982,3.23415 1.13581,2.25538 1.46057,3.38629 1.36186,4.74207 -0.12953,1.78036 -0.12953,1.78036 -6.21553,2.158 -6.69577,0.41549 -6.33305,0.20584 -5.81179,3.3593 0.24607,1.48927 0.3678,1.60159 1.73485,1.60159 0.80859,0 7.84632,0.57795 15.63936,1.28434 14.35493,1.30118 23.15439,2.64053 41.71597,6.34939 4.58043,0.91524 8.554,1.68614 8.83012,1.71303 0.37942,0.037 0.53589,-7.59246 0.64062,-31.23467 z m -197.761777,27.2527 c 12.03706,-2.92519 19.32112,-4.3242 25.57305,-4.91165 4.91421,-0.46175 23.29113,-1.29564 28.72122,-1.30327 2.88279,-0.003 2.88279,-0.003 2.88279,-2.13941 0,-2.13546 0,-2.13546 -2.56246,-2.13546 -2.5625,0 -2.5625,0 -2.5625,-5.06318 0,-5.06324 0,-5.06324 2.88279,-5.33549 1.58553,-0.14948 8.88861,-0.2733 16.22908,-0.2752 13.346297,-0.003 13.346297,-0.003 13.346297,-5.05875 0,-2.78063 -0.12636,-9.96821 -0.2809,-15.97244 -0.31963,-12.41802 3.59716,-10.93408 -31.323117,-11.86753 -27.59149,-0.73756 -46.98144,-1.88711 -57.656,-3.41824 -4.89543,-0.70218 -4.92163,-0.69433 -5.38978,1.61353 -0.49424,2.43646 -0.26206,58.18986 0.24232,58.18986 0.18681,0 4.64057,-1.04518 9.89719,-2.32267 z m 76.857727,-7.50021 c 7.22546,0 7.22546,0 7.22546,-1.28123 0,-1.28124 0,-1.28124 -6.56638,-1.28124 -3.611507,0 -7.166957,-0.12033 -7.900997,-0.26696 -1.32658,-0.26506 -1.33466,-0.25588 -1.33466,1.5405 0,1.47264 0.12541,1.75936 0.67558,1.54814 0.37153,-0.14283 3.92699,-0.25937 7.900997,-0.25937 z m 41.39197,-1.06769 c 0,-1.49478 0,-1.49478 -12.17181,-1.49478 -12.17182,0 -12.17182,0 -12.17182,1.49478 0,1.4948 0,1.4948 12.17182,1.4948 12.17181,0 12.17181,0 12.17181,-1.4948 z"
       id="path1" /></g></svg>
